<?xml version="1.0" encoding="UTF-8" standalone="no"?>
<!-- Created with Inkscape (http://www.inkscape.org/) -->

<svg
   xmlns:dc="http://purl.org/dc/elements/1.1/"
   xmlns:cc="http://creativecommons.org/ns#"
   xmlns:rdf="http://www.w3.org/1999/02/22-rdf-syntax-ns#"
   xmlns:svg="http://www.w3.org/2000/svg"
   xmlns="http://www.w3.org/2000/svg"
   xmlns:xlink="http://www.w3.org/1999/xlink"
   xmlns:sodipodi="http://sodipodi.sourceforge.net/DTD/sodipodi-0.dtd"
   xmlns:inkscape="http://www.inkscape.org/namespaces/inkscape"
   width="484.77505"
   height="474.96417"
   id="svg2"
   sodipodi:version="0.32"
   inkscape:version="0.92.3 (2405546, 2018-03-11)"
   version="1.0"
   sodipodi:docname="kcbj_logo_30jaar_white.svg"
   inkscape:output_extension="org.inkscape.output.svg.inkscape"
   inkscape:export-filename="/home/litrik/KCBJ/Logo/30 jaar/kcbj_logo_30jaar_white.svg.png"
   inkscape:export-xdpi="164.17999"
   inkscape:export-ydpi="164.17999">
  <defs
     id="defs4">
    <linearGradient
       id="linearGradient3467">
      <stop
         style="stop-color:#ffffff;stop-opacity:1;"
         offset="0"
         id="stop3469" />
      <stop
         id="stop3475"
         offset="0.34999999"
         style="stop-color:#ffffff;stop-opacity:1;" />
      <stop
         style="stop-color:#ffffff;stop-opacity:0;"
         offset="0.5"
         id="stop3477" />
      <stop
         style="stop-color:#ffffff;stop-opacity:0;"
         offset="1"
         id="stop3471" />
    </linearGradient>
    <inkscape:perspective
       sodipodi:type="inkscape:persp3d"
       inkscape:vp_x="0 : 526.18109 : 1"
       inkscape:vp_y="0 : 1000 : 0"
       inkscape:vp_z="744.09448 : 526.18109 : 1"
       inkscape:persp3d-origin="372.04724 : 350.78739 : 1"
       id="perspective10" />
    <inkscape:perspective
       id="perspective2501"
       inkscape:persp3d-origin="372.04724 : 350.78739 : 1"
       inkscape:vp_z="744.09448 : 526.18109 : 1"
       inkscape:vp_y="0 : 1000 : 0"
       inkscape:vp_x="0 : 526.18109 : 1"
       sodipodi:type="inkscape:persp3d" />
    <inkscape:perspective
       id="perspective2588"
       inkscape:persp3d-origin="372.04724 : 350.78739 : 1"
       inkscape:vp_z="744.09448 : 526.18109 : 1"
       inkscape:vp_y="0 : 1000 : 0"
       inkscape:vp_x="0 : 526.18109 : 1"
       sodipodi:type="inkscape:persp3d" />
    <inkscape:perspective
       id="perspective3461"
       inkscape:persp3d-origin="372.04724 : 350.78739 : 1"
       inkscape:vp_z="744.09448 : 526.18109 : 1"
       inkscape:vp_y="0 : 1000 : 0"
       inkscape:vp_x="0 : 526.18109 : 1"
       sodipodi:type="inkscape:persp3d" />
    <inkscape:perspective
       id="perspective3603"
       inkscape:persp3d-origin="372.04724 : 350.78739 : 1"
       inkscape:vp_z="744.09448 : 526.18109 : 1"
       inkscape:vp_y="0 : 1000 : 0"
       inkscape:vp_x="0 : 526.18109 : 1"
       sodipodi:type="inkscape:persp3d" />
    <inkscape:perspective
       id="perspective3718"
       inkscape:persp3d-origin="372.04724 : 350.78739 : 1"
       inkscape:vp_z="744.09448 : 526.18109 : 1"
       inkscape:vp_y="0 : 1000 : 0"
       inkscape:vp_x="0 : 526.18109 : 1"
       sodipodi:type="inkscape:persp3d" />
    <linearGradient
       inkscape:collect="always"
       xlink:href="#linearGradient3467"
       id="linearGradient3771"
       gradientUnits="userSpaceOnUse"
       gradientTransform="translate(66.981334,18.35951)"
       x1="48.113979"
       y1="570.57629"
       x2="408.18253"
       y2="570.57629" />
  </defs>
  <sodipodi:namedview
     id="base"
     pagecolor="#006699"
     bordercolor="#666666"
     borderopacity="1.0"
     gridtolerance="10000"
     guidetolerance="10"
     objecttolerance="10"
     inkscape:pageopacity="0"
     inkscape:pageshadow="2"
     inkscape:zoom="1.0407058"
     inkscape:cx="687.03261"
     inkscape:cy="-36.028816"
     inkscape:document-units="px"
     inkscape:current-layer="layer1"
     showgrid="false"
     inkscape:window-width="2560"
     inkscape:window-height="1403"
     inkscape:window-x="3840"
     inkscape:window-y="0"
     inkscape:window-maximized="1"
     fit-margin-top="0"
     fit-margin-left="0"
     fit-margin-right="0"
     fit-margin-bottom="0"
     inkscape:pagecheckerboard="true" />
  <metadata
     id="metadata7">
    <rdf:RDF>
      <cc:Work
         rdf:about="">
        <dc:format>image/svg+xml</dc:format>
        <dc:type
           rdf:resource="http://purl.org/dc/dcmitype/StillImage" />
        <dc:title></dc:title>
      </cc:Work>
    </rdf:RDF>
  </metadata>
  <g
     inkscape:label="Layer 1"
     inkscape:groupmode="layer"
     id="layer1"
     transform="translate(-36.764342,511.40764)">
    <path
       style="fill:#f5f5f5;fill-opacity:1;stroke:#c72222;stroke-width:0;stroke-miterlimit:4;stroke-dasharray:none;stroke-opacity:0.38646288"
       inkscape:connector-curvature="0"
       d="m 268.42363,-36.801273 c -48.53185,-1.780637 -99.52628,-12.237148 -151.54364,-31.066446 -5.1146,-1.856409 -10.98691,-4.015906 -13.07064,-4.849396 l -3.78859,-1.477551 -0.189431,-12.767551 -0.18943,-12.767552 -4.546309,-1.629091 c -14.623961,-5.15249 -27.88403,-12.35081 -40.462152,-21.89806 -6.478491,-4.92517 -15.798424,-13.1843 -15.798424,-13.9799 0,-0.68195 6.175403,-5.1146 11.327887,-8.14547 12.350806,-7.2741 14.434531,-8.52433 14.434531,-8.71376 0,-0.11366 -0.681946,-1.02292 -1.515436,-2.00795 -2.765671,-3.29608 -7.122551,-10.19131 -9.774565,-15.45745 -5.796544,-11.44155 -9.963994,-24.13333 -13.676813,-41.75028 -1.704866,-8.03181 -3.068759,-15.68476 -2.841444,-15.87419 0.416745,-0.45463 2.462585,1.40178 11.21423,10.00188 8.865303,8.78953 14.093558,13.37372 19.890103,17.54117 11.782518,8.44856 27.012653,15.76054 42.015473,20.15531 4.12957,1.21235 16.74558,4.16745 17.73061,4.16745 0.11366,0 0.22732,6.21329 0.22732,13.79047 v 13.82836 l 7.50141,2.46258 c 43.15205,14.13144 81.00007,21.89806 121.68954,24.92893 10.30497,0.75772 41.03044,0.64406 50.57769,-0.18943 17.27597,-1.51544 34.43829,-4.16745 54.40416,-8.37279 20.15531,-4.2811 40.84102,-9.85033 61.26152,-16.55614 l 6.89524,-2.27315 v -13.82836 c 0,-7.57718 0.0758,-13.79047 0.15154,-13.79047 0.56829,0 8.52433,-1.78064 12.72967,-2.84145 21.21611,-5.3798 41.18198,-15.5711 56.14691,-28.67963 1.70487,-1.51544 6.93313,-6.47849 11.55521,-11.06269 4.62208,-4.58419 8.94107,-8.63798 9.58513,-9.05473 l 1.17447,-0.75772 -0.22732,1.47755 c -3.52339,19.96588 -7.38775,34.89293 -12.19926,47.09219 -3.37185,8.63799 -9.54725,19.58702 -14.09356,24.92893 -0.83349,1.02292 -1.55332,1.97007 -1.55332,2.08372 0,0.34098 4.12956,2.91722 11.17634,6.93313 6.85735,3.94013 10.94903,6.63003 13.29795,8.75164 l 1.47755,1.28812 -3.03087,2.87933 c -15.26802,14.5103 -32.69554,25.30779 -53.04027,32.77131 l -4.92517,1.818527 -0.18943,12.729666 -0.18943,12.767551 -3.78859,1.477551 c -11.47943,4.508423 -31.67262,11.441545 -43.75823,15.078592 -35.91584,10.721713 -69.97527,17.238089 -104.56511,19.927989 -6.63003,0.492516 -27.05054,1.401778 -28.98272,1.250235 -0.41674,0 -4.24322,-0.18943 -8.52433,-0.340974 z"
       id="path876" />
    <g
       id="g3756"
       transform="translate(-23.502247,-916.97328)">
      <path
         sodipodi:nodetypes="cscsssssccssssccssccccccccccccccccccccssscccssccssssccsssssssccssccsscccccssssc"
         style="fill:#ffffff;fill-opacity:1"
         d="m 329.39051,736.69623 c 0,1.89283 0,-1.75758 0,0 z m 46.63957,-3.25 c -1.00614,-1.60949 -1.74024,-9.06415 -2.57876,-26.18691 -1.12681,-23.00971 -1.0981,-24.03618 0.74141,-26.5 2.46524,-3.30193 5.93684,-3.29319 8.41136,0.0212 1.87868,2.51628 1.89092,3.23345 0.46505,27.26845 -1.39414,23.50014 -2.11085,27.64729 -4.77802,27.64729 -0.46998,0 -1.48745,-1.0125 -2.26104,-2.25 z m -25.8388,-24.01695 c -1.41021,-1.1327 -5.91624,-12.61136 -14.35347,-36.56403 -2.69522,-7.65152 -3.10621,-9.84901 -2.28347,-12.20914 1.79114,-5.13807 7.84496,-4.69715 9.90511,0.72143 1.71838,4.51971 10.93106,42.15879 10.93106,44.6597 0,3.27283 -2.16768,5.02383 -4.19923,3.39204 z m 31.75844,-34.45141 c -2.44505,-1.28492 -3.51124,-1.33916 -6.32486,-0.32174 -1.86125,0.67304 -3.51269,1.06989 -3.66987,0.8819 -0.15719,-0.18799 -0.55471,-4.3918 -0.88338,-9.3418 l -0.59759,-9 5.57991,-2.42726 c 3.06895,-1.335 7.11521,-3.46915 8.9917,-4.74257 l 3.41179,-2.31531 -0.59004,4.74257 c -0.32452,2.60841 -1.12708,9.09116 -1.78345,14.40611 l -1.19342,9.66354 z m -34.16114,-13.83172 c -0.34395,-1.37042 -2.17545,-3.76938 -4.07001,-5.33103 l -3.44464,-2.83937 13.30829,-8.466 13.30829,-8.466 0.31017,2.7835 c 0.21202,1.9027 1.88254,4.09996 5.27915,6.94377 l 4.96898,4.16026 -12.27915,5.97822 c -17.25622,8.40135 -16.63385,8.21384 -17.38108,5.23665 z m 27.42263,-18.19992 c -3.03917,-3.17887 -3.68049,-4.66382 -4.21085,-9.75 -1.40898,-13.51235 -2.57837,-36.1509 -2.02086,-39.12266 0.57563,-3.06838 0.6879,-3.13203 3.25361,-1.84476 1.46157,0.7333 6.50933,3.10166 11.21724,5.26302 l 8.55983,3.92974 -1.27033,12.38733 c -0.69868,6.81303 -2.00589,14.8126 -2.9049,17.77681 -1.63685,5.39699 -6.98989,15.11052 -8.32727,15.11052 -0.3912,0 -2.32461,-1.6875 -4.29647,-3.75 z m 16.5649,-6.2644 c -1.33258,-1.33258 11.94944,-39.78447 14.41627,-41.7356 2.18267,-1.72637 4.74197,-1.5633 6.73435,0.42908 2.87801,2.878 1.20721,8.5074 -6.49662,21.88898 -3.91873,6.80685 -7.71112,14.07616 -8.42755,16.15402 -1.34121,3.88997 -4.13544,5.35453 -6.22645,3.26352 z m -2.3856,-40.49914 c -4.675,-2.4272 -10.22022,-4.90576 -12.32271,-5.5079 -8.15548,-2.33569 -7.72991,-13.97856 0.51094,-13.97856 1.58304,0 5.13921,1.14571 7.9026,2.54603 4.45567,2.25786 17.72544,10.06348 18.82978,11.07616 0.23134,0.21213 -0.52281,1.39642 -1.67587,2.63175 -1.15306,1.23533 -2.40362,3.48356 -2.77902,4.99606 -0.37539,1.5125 -0.97125,2.7274 -1.32413,2.69978 -0.35287,-0.0276 -4.46659,-2.03612 -9.14159,-4.46332 z m 0.25,-18.80099 c -4.78788,-2.34267 -5.67332,-4.24981 -1.5,-3.23083 2.7112,0.66199 7.05943,4.10161 6.19444,4.90006 -0.24444,0.22565 -2.35694,-0.52551 -4.69444,-1.66923 z m -13.13506,-9.72438 c -3.6261,-3.6261 -4.80002,-8.73112 -3.22026,-14.0039 3.8869,-12.97333 20.10532,-8.86828 20.10532,5.08886 0,10.4864 -10.02216,15.77794 -16.88506,8.91504 z m 12.38349,-27.60828 c -1.16369,-0.86395 -3.40142,-1.32606 -5.35728,-1.10634 l -3.35885,0.37734 0.56738,-4.5619 c 0.31207,-2.50905 1.10433,-9.73691 1.76059,-16.06191 1.28012,-12.33779 2.66897,-15.64933 5.41263,-12.90567 1.15036,1.15036 1.76988,5.63881 2.53255,18.3484 0.55531,9.25402 0.8818,16.95335 0.72553,17.10962 -0.15627,0.15627 -1.18342,-0.38352 -2.28255,-1.19954 z"
         id="path3376"
         inkscape:connector-curvature="0" />
      <path
         style="fill:url(#linearGradient3771);fill-opacity:1"
         d="m 279.6597,769.38605 c -40.93703,-3.20616 -77.32198,-20.54595 -110.08545,-52.46288 -30.066,-29.28916 -47.02573,-60.96694 -53.31362,-99.58036 -1.78261,-10.94686 -1.46254,-42.04837 0.56715,-55.10832 3.07806,-19.80589 5.9615,-30.03744 13.37352,-47.45438 9.30476,-21.86457 20.23341,-37.64606 39.23292,-56.65423 16.00817,-16.01545 27.32631,-24.35672 44.40165,-32.72325 25.84289,-12.66242 48.12345,-17.54354 80.11117,-17.55038 21.82551,-0.005 30.48031,0.97424 47.60559,5.38455 48.22662,12.41986 90.78176,48.58691 114.61735,97.41177 3.84944,7.88523 8.18739,18.01067 9.63988,22.50098 4.21911,13.04322 7.67146,31.51978 8.7953,47.07143 3.90738,54.07058 -12.61954,98.26321 -51.49434,137.6947 -37.08312,37.61415 -87.84009,55.82579 -143.45112,51.47037 z m 41.97044,-7.5293 c 11.54333,-2.21568 16.56795,-3.72672 15.56388,-4.6805 -1.14839,-1.09085 -14.60561,-3.73499 -26.40832,-5.18883 -13.90499,-1.7128 -37.4414,0.0405 -50.47963,3.76045 -4.29655,1.22583 -5.19735,1.80325 -3.9245,2.51556 2.73199,1.52891 14.13718,4.1906 21.74734,5.0753 9.86418,1.14675 34.10924,0.32078 43.50123,-1.48198 z m -65.08339,-12.39602 c 3.84589,-1.3085 7.16399,-2.55057 7.37356,-2.76013 1.48048,-1.48048 -6.84145,-34.8343 -9.39546,-37.65644 -0.84709,-0.93603 -5.10184,-3.77133 -9.455,-6.30069 -9.60287,-5.57965 -18.4465,-12.22282 -33.25017,-24.97692 -15.07247,-12.9857 -15.93194,-13.35932 -25.30399,-11.0001 -4.0577,1.02144 -11.74039,3.29723 -17.07264,5.0573 l -9.69497,3.20011 0.0349,10.70481 c 0.0292,8.93019 0.39601,11.3815 2.213,14.78689 6.57926,12.33079 28.3045,30.08169 53.37064,43.60719 7.43866,4.01384 14.02448,6.39432 22.9618,8.29969 3.46105,0.73785 10.89836,-0.4712 18.21829,-2.96171 z m 107.44768,-0.32727 c 24.07762,-8.38163 59.41301,-36.15682 74.40616,-58.48655 5.48578,-8.17014 12.10061,-23.2927 10.77043,-24.62287 -0.45872,-0.45873 -3.37546,-1.09634 -6.48165,-1.41693 l -5.64763,-0.58288 -12.1018,8.62822 c -6.65599,4.74554 -17.59311,12.65208 -24.30472,17.57012 -6.71161,4.91803 -15.65664,10.83739 -19.87783,13.15412 -4.22121,2.31672 -9.90238,6.52423 -12.62481,9.35002 -7.12385,7.39426 -25.20036,31.47303 -25.20036,33.56808 0,1.90142 7.12538,5.70578 10.71551,5.7212 1.12258,0.005 5.7786,-1.29232 10.3467,-2.88253 z m 23.84086,-56.99607 c 28.2519,-18.71866 42.1083,-30.41463 43.87154,-37.03123 2.58228,-9.69011 6.33021,-46.23358 5.08249,-49.55578 -1.12795,-3.00329 -9.67401,-9.16236 -25.38768,-18.29666 -17.24099,-10.02212 -27.58136,-14.81398 -31.96715,-14.81398 -2.4153,0 -6.44073,1.85011 -13.58884,6.24553 -13.21628,8.12678 -32.41097,22.55099 -35.17532,26.43316 -1.68432,2.3654 -3.18752,9.0835 -6.67567,29.83501 -2.47602,14.7302 -4.79531,30.22678 -5.15396,34.43684 l -0.65209,7.65468 8.1675,5.88063 c 12.96586,9.3355 38.69143,20.74216 44.13027,19.56728 1.40323,-0.30312 9.21023,-4.96308 17.34891,-10.35548 z m -111.61674,3.91432 c 9.31316,-3.13832 22.6755,-9.79946 28.37978,-14.14735 4.01063,-3.05695 5.43212,-4.98127 6.96853,-9.43349 2.06543,-5.98515 8.54949,-45.41968 9.59029,-58.32578 l 0.62822,-7.7901 -4.98956,-4.80533 c -11.29106,-10.87407 -34.3012,-27.1581 -41.36726,-29.27515 -5.77567,-1.73043 -11.6455,-0.28035 -24.89437,6.1499 -13.83699,6.71568 -37.83415,19.94582 -40.53544,22.34805 -2.51293,2.2347 -4.5005,9.53241 -7.42184,27.25051 -3.11444,18.88929 -3.19426,25.0381 -0.39997,30.81033 4.88068,10.08215 33.59945,32.77939 48.39782,38.25015 6.41867,2.3729 16.77703,1.95615 25.6438,-1.03174 z M 154.1352,683.45349 c 0,-4.44408 -1.00321,-7.35918 -6.0583,-17.60404 -10.35848,-20.99301 -16.37594,-38.75964 -18.67561,-55.14005 -1.24869,-8.89432 -1.3782,-9.19492 -4.09591,-9.50763 l -2.80644,-0.32291 v 7.81653 c 0,16.03608 6.44227,37.66762 17.46797,58.65312 5.83537,11.10661 12.28114,21.40901 13.40289,21.42209 0.42097,0.005 0.7654,-2.38778 0.7654,-5.31711 z M 143.53279,578.30776 c 7.70815,-9.12095 14.9011,-17.58137 15.98433,-18.80095 1.16125,-1.30739 3.3473,-7.79912 5.32669,-15.81812 5.39139,-21.84193 11.71035,-38.66354 20.00533,-53.2559 2.82615,-4.97169 4.91909,-9.61113 4.65096,-10.30986 -1.20901,-3.15065 -9.94857,-15.85878 -10.90628,-15.85878 -2.6425,0 -9.10316,4.32979 -13.5427,9.07602 -2.66858,2.85294 -8.07241,10.12936 -12.00851,16.16987 -20.73068,31.81413 -32.79689,67.3097 -31.13955,91.60415 0.86438,12.67079 1.24458,13.77709 4.7347,13.77709 2.46684,0 4.89177,-2.38022 16.89503,-16.58352 z m 303.5403,10.21409 c 4.71076,-5.85828 14.68736,-23.79221 16.23236,-29.17927 1.18072,-4.1169 -0.48297,-13.07991 -5.24073,-28.23409 -6.79275,-21.63597 -16.70952,-39.43213 -31.13881,-55.88031 -8.78269,-10.01151 -17.24752,-16.32975 -25.51296,-19.04309 -11.33859,-3.7222 -11.39089,-3.69895 -20.43958,9.0873 -4.36463,6.16743 -10.23186,14.98897 -13.0383,19.60344 -4.29994,7.07013 -5.07865,9.1189 -4.95026,13.02395 0.1443,4.38825 15.41536,53.24726 19.59801,62.70284 1.64564,3.72026 3.3737,5.13305 14.02507,11.4664 6.68148,3.97284 16.97014,9.83302 22.86367,13.02264 5.89352,3.18961 12.32283,6.6998 14.28734,7.8004 5.50161,3.08227 7.97406,2.27071 13.31419,-4.37021 z m -221.4875,-3.67133 c 8.78027,-4.46315 41.24938,-22.45892 43.66841,-24.2029 0.17039,-0.12285 2.18119,-6.36016 4.46845,-13.86072 2.28723,-7.50054 6.21618,-19.14818 8.73098,-25.88365 6.53556,-17.50446 5.75886,-21.7096 -7.00039,-37.90069 -9.97852,-12.66244 -19.31551,-22.82472 -23.53917,-25.61981 -5.11988,-3.38818 -8.83731,-2.85967 -22.11121,3.14352 -22.00332,9.95112 -33.19284,19.99719 -42.24211,37.92544 -2.66305,5.27599 -12.68599,33.32272 -15.57894,43.59379 -1.57821,5.60327 -1.55919,6.02449 0.47989,10.63421 5.25722,11.88478 31.85477,38.12946 38.64216,38.12946 1.51777,0 8.03464,-2.68139 14.48193,-5.95865 z m 134.98216,-99.28764 c 4.99082,-5.70424 13.66924,-18.79775 18.43011,-27.80631 2.68202,-5.07494 3.53805,-7.75899 3.09202,-9.69498 -3.2734,-14.20856 -31.97203,-29.13634 -63.95765,-33.268 -14.27803,-1.84433 -27.05287,-2.00146 -32.40288,-0.39855 -10.93513,3.27624 -29.42829,24.71542 -29.51296,34.21446 -0.0294,3.30117 4.69419,10.22874 10.67422,15.65465 1.54652,1.40321 6.40906,6.97519 10.80562,12.38215 8.83358,10.86368 15.34653,16.93936 18.66598,17.4128 1.19746,0.17079 15.25556,-0.66747 31.24023,-1.86281 l 29.06304,-2.17331 z"
         id="path2596"
         inkscape:connector-curvature="0" />
      <path
         style="fill:#ffffff;fill-opacity:1;stroke:#ffffff;stroke-width:0.90583229;stroke-opacity:1"
         d="m 372.47944,494.28802 c -3.18281,-0.24927 -6.0117,-1.59742 -8.55902,-4.07893 -2.33761,-2.27721 -3.65621,-4.74012 -4.14509,-7.74228 -0.13859,-0.8511 -0.11371,-3.26922 0.0441,-4.28461 0.23932,-1.53989 0.46351,-2.33538 1.03978,-3.68953 0.72344,-1.69995 1.57313,-2.92694 3.05033,-4.40481 1.24461,-1.24519 2.12459,-1.89371 3.45218,-2.5442 2.00925,-0.98449 3.74155,-1.36399 6.22857,-1.36453 1.6969,-3.6e-4 2.36981,0.0758 3.70128,0.41865 3.74957,0.96563 7.05819,3.77758 8.91138,7.57366 0.29929,0.61307 0.63656,1.40031 0.74949,1.74943 0.32803,1.0141 0.59645,2.45063 0.68383,3.65976 0.30379,4.20393 -0.98116,7.63986 -4.00364,10.70562 -2.88317,2.92447 -6.82948,4.3404 -11.15318,4.00177 z m 3.26317,-0.58539 c 0.89748,-0.17227 1.28813,-0.28975 1.21007,-0.36391 -0.0893,-0.0848 -1.13557,-0.29039 -2.05322,-0.40342 -1.0811,-0.13318 -2.91103,0.003 -3.92474,0.29236 -0.33405,0.0953 -0.40409,0.14021 -0.30513,0.19559 0.21241,0.11887 1.09916,0.32581 1.69084,0.3946 0.76693,0.0891 2.65196,0.0249 3.38218,-0.11522 z m -5.06017,-0.96378 c 0.29901,-0.10173 0.55699,-0.1983 0.57328,-0.2146 0.11511,-0.1151 -0.53191,-2.70833 -0.73048,-2.92775 -0.0659,-0.0728 -0.39667,-0.29322 -0.73512,-0.48987 -0.74662,-0.43382 -1.4342,-0.95031 -2.58517,-1.94194 -1.17187,-1.00962 -1.23869,-1.03867 -1.96735,-0.85524 -0.31549,0.0794 -0.91281,0.25636 -1.32738,0.3932 l -0.75378,0.24881 0.003,0.83229 c 0.002,0.69431 0.0308,0.8849 0.17206,1.14966 0.51153,0.95871 2.20065,2.33883 4.14952,3.39042 0.57834,0.31206 1.09038,0.49714 1.78526,0.64529 0.26908,0.0574 0.84733,-0.0366 1.41645,-0.23027 z m 8.35394,-0.0254 c 1.87201,-0.65167 4.6193,-2.81116 5.78501,-4.54727 0.42651,-0.63523 0.94081,-1.81099 0.83739,-1.91441 -0.0357,-0.0357 -0.26244,-0.0852 -0.50394,-0.11016 l -0.4391,-0.0453 -0.9409,0.67083 c -0.5175,0.36896 -1.36785,0.98369 -1.88967,1.36606 -0.52182,0.38238 -1.21729,0.84259 -1.54548,1.02272 -0.3282,0.18012 -0.7699,0.50725 -0.98156,0.72696 -0.55388,0.57489 -1.95931,2.44699 -1.95931,2.60988 0,0.14783 0.55399,0.44362 0.83312,0.44482 0.0873,3.7e-4 0.44928,-0.10048 0.80444,-0.22411 z m 1.85361,-4.43139 c 2.19655,-1.45536 3.27388,-2.36471 3.41096,-2.87914 0.20077,-0.7534 0.49217,-3.59462 0.39516,-3.85292 -0.0877,-0.2335 -0.75214,-0.71236 -1.97386,-1.42254 -1.34048,-0.77922 -2.14443,-1.15178 -2.48541,-1.15178 -0.18779,0 -0.50076,0.14385 -1.05653,0.48558 -1.02755,0.63186 -2.51992,1.75332 -2.73484,2.05516 -0.13096,0.18391 -0.24783,0.70623 -0.51903,2.31964 -0.1925,1.14526 -0.37283,2.3501 -0.40071,2.67743 l -0.0507,0.59515 0.63502,0.45721 c 1.00808,0.72582 3.00821,1.61268 3.43108,1.52133 0.1091,-0.0236 0.71608,-0.38587 1.34886,-0.80512 z m -8.67809,0.30433 c 0.72408,-0.244 1.763,-0.76189 2.2065,-1.09994 0.31182,-0.23767 0.42234,-0.38729 0.54179,-0.73344 0.16059,-0.46535 0.66472,-3.53134 0.74564,-4.53477 l 0.0488,-0.60568 -0.38793,-0.37361 c -0.87787,-0.84545 -2.66688,-2.11151 -3.21627,-2.27611 -0.44905,-0.13454 -0.90542,-0.0218 -1.93551,0.47814 -1.07581,0.52214 -2.94156,1.55078 -3.15159,1.73754 -0.19538,0.17375 -0.3499,0.74114 -0.57704,2.11871 -0.24214,1.46862 -0.24834,1.94668 -0.0311,2.39546 0.37947,0.78388 2.61233,2.54857 3.76289,2.97391 0.49905,0.18449 1.30439,0.15209 1.99378,-0.0802 z m -9.49186,-0.9795 c 0,-0.34552 -0.078,-0.57217 -0.47102,-1.3687 -0.80537,-1.63218 -1.27322,-3.01352 -1.45201,-4.28707 -0.0971,-0.69153 -0.10715,-0.7149 -0.31846,-0.73922 l -0.21819,-0.0251 v 0.60774 c 0,1.24678 0.50088,2.92861 1.35811,4.56022 0.45369,0.86353 0.95485,1.66453 1.04206,1.66554 0.0327,3.8e-4 0.0595,-0.18565 0.0595,-0.4134 z m -0.82432,-8.17497 c 0.5993,-0.70914 1.15854,-1.36693 1.24276,-1.46176 0.0903,-0.10165 0.26025,-0.60637 0.41415,-1.22984 0.41917,-1.69819 0.91046,-3.00605 1.55539,-4.14059 0.21973,-0.38655 0.38246,-0.74726 0.3616,-0.80158 -0.094,-0.24496 -0.77349,-1.23301 -0.84794,-1.23301 -0.20546,0 -0.70777,0.33663 -1.05294,0.70565 -0.20748,0.22181 -0.62762,0.78755 -0.93365,1.2572 -1.61179,2.47351 -2.54992,5.23325 -2.42107,7.12212 0.0672,0.98515 0.0968,1.07116 0.36812,1.07116 0.1918,0 0.38034,-0.18506 1.31358,-1.28935 z m 23.59994,0.79413 c 0.36626,-0.45547 1.14193,-1.84982 1.26206,-2.26866 0.0918,-0.32008 -0.0376,-1.01695 -0.40747,-2.19516 -0.52812,-1.68218 -1.29914,-3.06582 -2.421,-4.34465 -0.68285,-0.77838 -1.34098,-1.26962 -1.98361,-1.48058 -0.88157,-0.2894 -0.88564,-0.28758 -1.58916,0.70653 -0.33934,0.47951 -0.79552,1.16538 -1.01372,1.52414 -0.33431,0.54971 -0.39486,0.70899 -0.38488,1.01261 0.0112,0.34118 1.19854,4.13992 1.52373,4.87508 0.12795,0.28925 0.2623,0.39909 1.09044,0.8915 0.51948,0.30889 1.31941,0.7645 1.77763,1.01249 0.45821,0.24799 0.95809,0.52091 1.11082,0.60649 0.42775,0.23963 0.61998,0.17653 1.03516,-0.33979 z m -17.22042,-0.28544 c 0.68265,-0.347 3.20709,-1.74616 3.39517,-1.88175 0.0132,-0.01 0.16959,-0.4945 0.34742,-1.07766 0.17783,-0.58316 0.4833,-1.48875 0.67882,-2.01243 0.50814,-1.36095 0.44775,-1.68789 -0.54427,-2.94673 -0.77581,-0.9845 -1.50176,-1.7746 -1.83015,-1.99192 -0.39806,-0.26343 -0.68709,-0.22234 -1.71912,0.2444 -1.71074,0.77369 -2.58071,1.55476 -3.28428,2.94867 -0.20705,0.4102 -0.98632,2.5908 -1.21125,3.38938 -0.1227,0.43564 -0.12122,0.46839 0.0373,0.8268 0.40875,0.92403 2.47668,2.96452 3.00439,2.96452 0.11801,0 0.62469,-0.20848 1.12596,-0.46328 z m 10.49472,-7.71951 c 0.38803,-0.4435 1.06278,-1.46151 1.43293,-2.16191 0.20852,-0.39457 0.27508,-0.60326 0.2404,-0.75378 -0.25451,-1.1047 -2.4858,-2.26533 -4.97264,-2.58655 -1.11011,-0.1434 -2.10334,-0.15561 -2.51929,-0.031 -0.8502,0.25472 -2.28803,1.9216 -2.2946,2.66014 -0.002,0.25666 0.36496,0.79527 0.8299,1.21713 0.12024,0.1091 0.4983,0.54231 0.84012,0.9627 0.68681,0.84464 1.19318,1.31702 1.45127,1.35383 0.0931,0.0133 1.1861,-0.0519 2.42889,-0.14483 l 2.25963,-0.16898 z"
         id="path3479"
         inkscape:connector-curvature="0" />
      <g
         transform="translate(66.31917,19.683837)"
         id="g3494">
        <g
           id="g3489"
           transform="translate(266.18974,19.864906)">
          <rect
             y="394.8338"
             x="-41.054142"
             height="31.78385"
             width="47.675774"
             id="rect3483"
             style="opacity:1;fill:#ffffff;fill-opacity:1;stroke:none;stroke-width:1.25;stroke-miterlimit:4;stroke-dasharray:5, 5;stroke-dashoffset:0;stroke-opacity:1" />
          <rect
             y="699.40198"
             x="-30.128445"
             height="3.9729812"
             width="25.824377"
             id="rect3485"
             style="opacity:1;fill:#ffffff;fill-opacity:1;stroke:none;stroke-width:1.25;stroke-miterlimit:4;stroke-dasharray:5, 5;stroke-dashoffset:0;stroke-opacity:1" />
          <rect
             y="425.27982"
             x="-19.533827"
             height="274.79785"
             width="4.6351447"
             id="rect3487"
             style="opacity:1;fill:#ffffff;fill-opacity:1;stroke:none;stroke-width:1.25;stroke-miterlimit:4;stroke-dasharray:5, 5;stroke-dashoffset:0;stroke-opacity:1" />
        </g>
      </g>
      <path
         sodipodi:open="true"
         sodipodi:end="5.7595865"
         sodipodi:start="0.52359878"
         transform="matrix(1.3880637,0,0,1.3880637,92.021219,-140.68958)"
         d="M 258.8675,590.00649 A 128.7908,128.7908 0 0 1 113.99788,650.01345 128.7908,128.7908 0 0 1 18.540588,525.61109 128.7908,128.7908 0 0 1 113.99788,401.20872 128.7908,128.7908 0 0 1 258.86749,461.21568"
         sodipodi:ry="128.7908"
         sodipodi:rx="128.7908"
         sodipodi:cy="525.61108"
         sodipodi:cx="147.33139"
         id="path3502"
         style="fill:none;fill-opacity:1;stroke:#ffffff;stroke-width:6.54722977;stroke-miterlimit:4;stroke-dasharray:none;stroke-dashoffset:0;stroke-opacity:1"
         sodipodi:type="arc" />
      <path
         sodipodi:open="true"
         sodipodi:end="0.52359879"
         sodipodi:start="5.7944931"
         transform="matrix(2.841591,0,0,2.841591,-1131.6063,-922.55492)"
         d="m 550.52389,506.41058 a 54.297409,54.297409 0 0 1 -0.91883,52.6398"
         sodipodi:ry="54.297409"
         sodipodi:rx="54.297409"
         sodipodi:cy="531.90167"
         sodipodi:cx="502.58212"
         id="path3512"
         style="fill:none;fill-opacity:1;stroke:none;stroke-width:0.32077584;stroke-miterlimit:4;stroke-dasharray:none;stroke-dashoffset:0;stroke-opacity:1"
         sodipodi:type="arc" />
      <g
         style="font-style:normal;font-variant:normal;font-weight:bold;font-stretch:normal;font-size:56px;line-height:125%;font-family:'Helvetica Neue';-inkscape-font-specification:'Helvetica Neue Bold';text-align:start;writing-mode:lr-tb;text-anchor:start;fill:#ffffff;fill-opacity:1;stroke:none;stroke-width:1px;stroke-linecap:butt;stroke-linejoin:miter;stroke-opacity:1"
         id="text3609">
        <path
           d="m 474.06036,506.51049 3.67103,9.86654 -13.96691,5.19665 19.25892,9.02653 4.26221,11.45543 -24.97431,-11.68472 -12.58174,27.81713 -4.59594,-12.35239 9.40501,-20.82932 -15.06889,5.60667 -3.67103,-9.86654 z"
           style="font-style:normal;font-variant:normal;font-weight:bold;font-stretch:normal;font-size:56px;line-height:125%;font-family:'Helvetica Neue';-inkscape-font-specification:'Helvetica Neue Bold';text-align:start;writing-mode:lr-tb;text-anchor:start;fill:#ffffff;fill-opacity:1"
           id="path4160"
           inkscape:connector-curvature="0" />
        <path
           d="m 453.95054,591.6604 q -1.75897,-2.75113 -2.80485,-5.81387 -1.04587,-3.06275 -1.35387,-6.46681 -0.91907,-10.15773 4.20813,-16.60693 5.15444,-6.45166 14.87645,-7.33131 9.74923,-0.88212 15.95075,4.54206 6.22875,5.42171 7.14782,15.57943 0.308,3.40406 -0.17115,6.60479 -0.47914,3.20073 -1.71575,6.2229 l -8.41484,0.76138 q 1.72432,-3.09375 2.39397,-6.00971 0.66965,-2.91596 0.38629,-6.04769 -0.50759,-5.6099 -4.39303,-8.49809 -3.88545,-2.88818 -10.20339,-2.31653 -6.29071,0.56918 -9.59464,4.10787 -3.30394,3.53868 -2.79635,9.14858 0.28336,3.13174 1.46552,5.88014 1.18216,2.7484 3.43378,5.48241 z"
           style="font-style:normal;font-variant:normal;font-weight:bold;font-stretch:normal;font-size:56px;line-height:125%;font-family:'Helvetica Neue';-inkscape-font-specification:'Helvetica Neue Bold';text-align:start;writing-mode:lr-tb;text-anchor:start;fill:#ffffff;fill-opacity:1"
           id="path4162"
           inkscape:connector-curvature="0" />
        <path
           d="m 472.87384,621.36609 q -0.44825,2.44757 0.39609,3.90874 0.84434,1.46116 2.94226,1.84537 2.07103,0.37929 3.3784,-0.68781 1.33426,-1.06217 1.78251,-3.50974 l 1.0492,-5.72894 -8.49926,-1.55656 z m -17.62739,-2.86691 q -0.5714,3.11999 0.46083,4.92134 1.0273,1.82826 3.69004,2.31591 2.60896,0.47781 4.18568,-0.84575 1.60362,-1.31862 2.17994,-4.4655 l 1.11324,-6.07859 -10.5165,-1.926 z m 12.67993,12.27408 q -1.57908,3.15783 -4.52298,4.50898 -2.94391,1.35115 -6.73631,0.65661 -5.80962,-1.06398 -7.94147,-5.51299 -2.13185,-4.44901 -0.66396,-12.46414 l 3.1476,-17.18681 40.15634,7.35425 -2.84712,15.54612 q -1.53193,8.36479 -4.74488,11.64036 -3.21788,3.30247 -8.78543,2.28283 -2.93171,-0.53692 -4.75152,-2.28792 -1.79291,-1.74608 -2.31027,-4.53729 z"
           style="font-style:normal;font-variant:normal;font-weight:bold;font-stretch:normal;font-size:56px;line-height:125%;font-family:'Helvetica Neue';-inkscape-font-specification:'Helvetica Neue Bold';text-align:start;writing-mode:lr-tb;text-anchor:start;fill:#ffffff;fill-opacity:1"
           id="path4164"
           inkscape:connector-curvature="0" />
        <path
           d="m 479.20628,657.64727 -3.97537,9.74789 -34.13028,-13.91897 q -7.06405,-2.88086 -8.9886,-8.15432 -1.93488,-5.24813 1.2351,-13.02113 l 0.8054,-1.97489 7.36788,3.00476 -0.61954,1.51915 q -1.23907,3.0383 -0.17255,5.27459 1.05619,2.26161 4.34769,3.60395 z"
           style="font-style:normal;font-variant:normal;font-weight:bold;font-stretch:normal;font-size:56px;line-height:125%;font-family:'Helvetica Neue';-inkscape-font-specification:'Helvetica Neue Bold';text-align:start;writing-mode:lr-tb;text-anchor:start;fill:#ffffff;fill-opacity:1"
           id="path4166"
           inkscape:connector-curvature="0" />
      </g>
    </g>
    <text
       id="text922"
       y="-27.625237"
       x="123.64053"
       style="font-style:normal;font-variant:normal;font-weight:normal;font-stretch:normal;font-size:26.66666603px;line-height:125%;font-family:Sans;-inkscape-font-specification:'Sans, Normal';font-variant-ligatures:normal;font-variant-caps:normal;font-variant-numeric:normal;font-feature-settings:normal;text-align:start;letter-spacing:0px;word-spacing:0px;writing-mode:lr-tb;text-anchor:start;fill:#006699;fill-opacity:1;stroke:none;stroke-width:1px;stroke-linecap:butt;stroke-linejoin:miter;stroke-opacity:1"
       xml:space="preserve"><tspan
         style="font-style:normal;font-variant:normal;font-weight:bold;font-stretch:normal;font-size:42.66666794px;font-family:sans-serif;-inkscape-font-specification:'sans-serif, Bold';font-variant-ligatures:normal;font-variant-caps:normal;font-variant-numeric:normal;font-feature-settings:normal;text-align:start;writing-mode:lr-tb;text-anchor:start;fill:#006699;fill-opacity:1;stroke-width:1px"
         y="-4.031487"
         x="123.64053"
         id="tspan920"
         sodipodi:role="line" /></text>
    <path
       style="fill:none;fill-rule:evenodd;stroke:none;stroke-width:1px;stroke-linecap:butt;stroke-linejoin:miter;stroke-opacity:1"
       d="m 114.45572,-84.27053 c 0,0 127.21358,74.96515 329.39231,1.81734"
       id="path964"
       inkscape:connector-curvature="0" />
    <g
       aria-label=" 30 JAAR"
       transform="translate(0,-10)"
       style="font-style:normal;font-variant:normal;font-weight:normal;font-stretch:normal;font-size:26.66666603px;line-height:125%;font-family:Sans;-inkscape-font-specification:'Sans, Normal';font-variant-ligatures:normal;font-variant-caps:normal;font-variant-numeric:normal;font-feature-settings:normal;text-align:start;letter-spacing:0px;word-spacing:0px;writing-mode:lr-tb;text-anchor:start;fill:#000000;fill-opacity:1;stroke:none;stroke-width:1px;stroke-linecap:butt;stroke-linejoin:miter;stroke-opacity:1"
       id="text850">
      <path
         d="m 170.37912,-89.024006 q 4.12632,2.593345 5.52891,6.221377 1.44185,3.607739 0.0288,8.044381 -2.10544,6.610298 -8.26752,8.452056 -6.15259,1.811981 -15.85961,-1.279787 -3.42425,-1.090654 -6.69809,-2.756539 -3.25354,-1.626624 -6.26733,-3.800027 l 2.81673,-8.843507 q 2.70369,2.632177 5.5944,4.471207 2.92998,1.818738 5.99692,2.795585 4.55575,1.451045 7.47026,0.641111 2.94429,-0.800451 3.88321,-3.748286 0.96736,-3.037164 -1.04067,-5.382174 -1.96877,-2.365302 -6.82228,-3.911186 l -4.58552,-1.460529 2.35202,-7.384477 4.82373,1.5364 q 4.31754,1.375173 6.85842,0.708608 2.55037,-0.696341 3.43238,-3.465519 0.81562,-2.560748 -0.79319,-4.614618 -1.60881,-2.05387 -5.3606,-3.24885 -2.76918,-0.882 -5.79707,-1.15768 -3.02789,-0.27568 -6.21569,0.0537 l 2.67447,-8.39686 q 3.69797,0.12833 7.18463,0.71412 3.48667,0.58578 6.70249,1.61005 8.66485,2.75983 12.04216,6.98402 3.41656,4.20391 1.59564,9.920922 -1.2424,3.900671 -4.0936,5.747472 -2.84172,1.817025 -7.18395,1.54908 z"
         style="font-style:normal;font-variant:normal;font-weight:bold;font-stretch:normal;font-size:64px;font-family:Sans;-inkscape-font-specification:'Sans, Bold';font-variant-ligatures:normal;font-variant-caps:normal;font-variant-numeric:normal;font-feature-settings:normal;text-align:start;writing-mode:lr-tb;text-anchor:start;fill:#006699;fill-opacity:1"
         id="path858"
         inkscape:connector-curvature="0" />
      <path
         d="m 209.96721,-78.452235 q 1.56273,-8.60932 0.56936,-12.410345 -0.95704,-3.826191 -4.76974,-4.518255 -3.8127,-0.692064 -6.08415,2.548105 -2.26588,3.209422 -3.8286,11.818742 -1.57947,8.701562 -0.59726,12.564082 0.9822,3.86252 4.7949,4.554584 3.78195,0.686483 6.05899,-2.584434 2.27704,-3.270916 3.8565,-11.972479 z m 11.82108,2.24099 q -2.07062,11.407349 -8.11762,16.725372 -6.04143,5.287276 -15.08121,3.646415 -9.07054,-1.646443 -12.86833,-8.719691 -3.79222,-7.103995 -1.72161,-18.511344 2.07619,-11.438097 8.11762,-16.725372 6.047,-5.318025 15.11754,-3.671585 9.03978,1.64087 12.832,8.744861 3.7978,7.073248 1.72161,18.511344 z"
         style="font-style:normal;font-variant:normal;font-weight:bold;font-stretch:normal;font-size:64px;font-family:Sans;-inkscape-font-specification:'Sans, Bold';font-variant-ligatures:normal;font-variant-caps:normal;font-variant-numeric:normal;font-feature-settings:normal;text-align:start;writing-mode:lr-tb;text-anchor:start;fill:#006699;fill-opacity:1"
         id="path860"
         inkscape:connector-curvature="0" />
      <path
         d="m 250.50047,-97.564729 12.02261,0.455857 -1.59609,42.094752 q -0.33035,8.712489 -5.24034,12.841918 -4.87876,4.130612 -14.46562,3.767111 l -2.43575,-0.09235 0.34456,-9.087221 1.87365,0.07104 q 3.74731,0.142085 5.73152,-1.877935 2.01544,-2.018835 2.16937,-6.078418 z"
         style="font-style:normal;font-variant:normal;font-weight:bold;font-stretch:normal;font-size:64px;font-family:Sans;-inkscape-font-specification:'Sans, Bold';font-variant-ligatures:normal;font-variant-caps:normal;font-variant-numeric:normal;font-feature-settings:normal;text-align:start;writing-mode:lr-tb;text-anchor:start;fill:#006699;fill-opacity:1"
         id="path862"
         inkscape:connector-curvature="0" />
      <path
         d="m 300.5047,-59.80871 -18.79269,0.863207 -2.5756,8.627268 -12.08101,0.554918 15.12223,-47.400054 14.32865,-0.65816 19.40385,45.814163 -12.08101,0.554919 z m -16.19304,-7.92158 12.76779,-0.586465 -7.22002,-18.250433 z"
         style="font-style:normal;font-variant:normal;font-weight:bold;font-stretch:normal;font-size:64px;font-family:Sans;-inkscape-font-specification:'Sans, Bold';font-variant-ligatures:normal;font-variant-caps:normal;font-variant-numeric:normal;font-feature-settings:normal;text-align:start;writing-mode:lr-tb;text-anchor:start;fill:#006699;fill-opacity:1"
         id="path864"
         inkscape:connector-curvature="0" />
      <path
         d="m 348.74981,-65.631439 -18.59815,2.83174 -1.65547,8.850022 -11.95596,1.820405 10.06145,-48.725908 14.18032,-2.15909 24.10726,43.523414 -11.95596,1.820405 z m -16.93531,-6.177457 12.63562,-1.92389 -9.09647,-17.391411 z"
         style="font-style:normal;font-variant:normal;font-weight:bold;font-stretch:normal;font-size:64px;font-family:Sans;-inkscape-font-specification:'Sans, Bold';font-variant-ligatures:normal;font-variant-caps:normal;font-variant-numeric:normal;font-feature-settings:normal;text-align:start;writing-mode:lr-tb;text-anchor:start;fill:#006699;fill-opacity:1"
         id="path866"
         inkscape:connector-curvature="0" />
      <path
         d="m 381.11963,-90.395455 q 3.66664,-0.923927 4.89877,-2.684611 1.26244,-1.768319 0.47596,-4.889504 -0.77885,-3.09088 -2.72087,-4.01951 -1.91172,-0.93626 -5.57835,-0.0123 l -4.90905,1.237 2.92449,11.605957 z m -2.87793,9.297529 4.3142,17.121063 -11.66657,2.939767 -11.40018,-45.242034 17.81803,-4.48982 q 8.93931,-2.25255 13.84673,-0.29868 4.93772,1.94624 6.57177,8.43104 1.1301,4.484805 -0.32631,7.913342 -1.4261,3.420902 -5.44608,5.884076 2.53136,-0.05778 4.89882,1.408185 2.39012,1.428021 5.31451,4.84839 l 9.57084,11.2525 -12.42413,3.13066 -8.34797,-9.852618 q -2.52186,-2.973944 -4.56218,-3.781119 -2.01002,-0.814811 -4.85848,-0.09705 z"
         style="font-style:normal;font-variant:normal;font-weight:bold;font-stretch:normal;font-size:64px;font-family:Sans;-inkscape-font-specification:'Sans, Bold';font-variant-ligatures:normal;font-variant-caps:normal;font-variant-numeric:normal;font-feature-settings:normal;text-align:start;writing-mode:lr-tb;text-anchor:start;fill:#006699;fill-opacity:1"
         id="path868"
         inkscape:connector-curvature="0" />
    </g>
  </g>
</svg>
