<?xml version="1.0" encoding="UTF-8" standalone="no"?>
<!-- Created with Inkscape (http://www.inkscape.org/) -->

<svg
   xmlns:dc="http://purl.org/dc/elements/1.1/"
   xmlns:cc="http://creativecommons.org/ns#"
   xmlns:rdf="http://www.w3.org/1999/02/22-rdf-syntax-ns#"
   xmlns:svg="http://www.w3.org/2000/svg"
   xmlns="http://www.w3.org/2000/svg"
   xmlns:xlink="http://www.w3.org/1999/xlink"
   xmlns:sodipodi="http://sodipodi.sourceforge.net/DTD/sodipodi-0.dtd"
   xmlns:inkscape="http://www.inkscape.org/namespaces/inkscape"
   width="380.07843"
   height="366.64551"
   id="svg2"
   sodipodi:version="0.32"
   inkscape:version="0.91 r13725"
   version="1.0"
   sodipodi:docname="inkscape-no-font.svg"
   inkscape:output_extension="org.inkscape.output.svg.inkscape">
  <defs
     id="defs4">
    <linearGradient
       id="linearGradient3467">
      <stop
         style="stop-color:#ffffff;stop-opacity:1;"
         offset="0"
         id="stop3469" />
      <stop
         id="stop3475"
         offset="0.34999999"
         style="stop-color:#ffffff;stop-opacity:1;" />
      <stop
         style="stop-color:#ffffff;stop-opacity:0;"
         offset="0.5"
         id="stop3477" />
      <stop
         style="stop-color:#ffffff;stop-opacity:0;"
         offset="1"
         id="stop3471" />
    </linearGradient>
    <inkscape:perspective
       sodipodi:type="inkscape:persp3d"
       inkscape:vp_x="0 : 526.18109 : 1"
       inkscape:vp_y="0 : 1000 : 0"
       inkscape:vp_z="744.09448 : 526.18109 : 1"
       inkscape:persp3d-origin="372.04724 : 350.78739 : 1"
       id="perspective10" />
    <inkscape:perspective
       id="perspective2501"
       inkscape:persp3d-origin="372.04724 : 350.78739 : 1"
       inkscape:vp_z="744.09448 : 526.18109 : 1"
       inkscape:vp_y="0 : 1000 : 0"
       inkscape:vp_x="0 : 526.18109 : 1"
       sodipodi:type="inkscape:persp3d" />
    <inkscape:perspective
       id="perspective2588"
       inkscape:persp3d-origin="372.04724 : 350.78739 : 1"
       inkscape:vp_z="744.09448 : 526.18109 : 1"
       inkscape:vp_y="0 : 1000 : 0"
       inkscape:vp_x="0 : 526.18109 : 1"
       sodipodi:type="inkscape:persp3d" />
    <inkscape:perspective
       id="perspective3461"
       inkscape:persp3d-origin="372.04724 : 350.78739 : 1"
       inkscape:vp_z="744.09448 : 526.18109 : 1"
       inkscape:vp_y="0 : 1000 : 0"
       inkscape:vp_x="0 : 526.18109 : 1"
       sodipodi:type="inkscape:persp3d" />
    <inkscape:perspective
       id="perspective3603"
       inkscape:persp3d-origin="372.04724 : 350.78739 : 1"
       inkscape:vp_z="744.09448 : 526.18109 : 1"
       inkscape:vp_y="0 : 1000 : 0"
       inkscape:vp_x="0 : 526.18109 : 1"
       sodipodi:type="inkscape:persp3d" />
    <inkscape:perspective
       id="perspective3718"
       inkscape:persp3d-origin="372.04724 : 350.78739 : 1"
       inkscape:vp_z="744.09448 : 526.18109 : 1"
       inkscape:vp_y="0 : 1000 : 0"
       inkscape:vp_x="0 : 526.18109 : 1"
       sodipodi:type="inkscape:persp3d" />
    <linearGradient
       inkscape:collect="always"
       xlink:href="#linearGradient3467"
       id="linearGradient3771"
       gradientUnits="userSpaceOnUse"
       gradientTransform="translate(66.981334,18.35951)"
       x1="48.113979"
       y1="570.57629"
       x2="408.18253"
       y2="570.57629" />
  </defs>
  <sodipodi:namedview
     id="base"
     pagecolor="#ffffff"
     bordercolor="#666666"
     borderopacity="1.0"
     gridtolerance="10000"
     guidetolerance="10"
     objecttolerance="10"
     inkscape:pageopacity="0.0"
     inkscape:pageshadow="2"
     inkscape:zoom="1.2278627"
     inkscape:cx="168.0342"
     inkscape:cy="212.62811"
     inkscape:document-units="px"
     inkscape:current-layer="layer1"
     showgrid="false"
     inkscape:window-width="1280"
     inkscape:window-height="752"
     inkscape:window-x="2296"
     inkscape:window-y="484"
     inkscape:window-maximized="0" />
  <metadata
     id="metadata7">
    <rdf:RDF>
      <cc:Work
         rdf:about="">
        <dc:format>image/svg+xml</dc:format>
        <dc:type
           rdf:resource="http://purl.org/dc/dcmitype/StillImage" />
        <dc:title></dc:title>
      </cc:Work>
    </rdf:RDF>
  </metadata>
  <g
     inkscape:label="Layer 1"
     inkscape:groupmode="layer"
     id="layer1"
     transform="translate(-32.855875,-27.346058)">
    <g
       id="g3756"
       transform="translate(-80.347951,-378.22328)">
      <path
         sodipodi:nodetypes="cscsssssccssssccssccccccccccccccccccccssscccssccssssccsssssssccssccsscccccssssc"
         style="fill:#ffffff;fill-opacity:1"
         d="M 329.39051,736.69623 C 329.39051,738.58906 329.39051,734.93865 329.39051,736.69623 z M 376.03008,733.44623 C 375.02394,731.83674 374.28984,724.38208 373.45132,707.25932 C 372.32451,684.24961 372.35322,683.22314 374.19273,680.75932 C 376.65797,677.45739 380.12957,677.46613 382.60409,680.78049 C 384.48277,683.29677 384.49501,684.01394 383.06914,708.04894 C 381.675,731.54908 380.95829,735.69623 378.29112,735.69623 C 377.82114,735.69623 376.80367,734.68373 376.03008,733.44623 z M 350.19128,709.42928 C 348.78107,708.29658 344.27504,696.81792 335.83781,672.86525 C 333.14259,665.21373 332.7316,663.01624 333.55434,660.65611 C 335.34548,655.51804 341.3993,655.95896 343.45945,661.37754 C 345.17783,665.89725 354.39051,703.53633 354.39051,706.03724 C 354.39051,709.31007 352.22283,711.06107 350.19128,709.42928 z M 381.94972,674.97787 C 379.50467,673.69295 378.43848,673.63871 375.62486,674.65613 C 373.76361,675.32917 372.11217,675.72602 371.95499,675.53803 C 371.7978,675.35004 371.40028,671.14623 371.07161,666.19623 L 370.47402,657.19623 L 376.05393,654.76897 C 379.12288,653.43397 383.16914,651.29982 385.04563,650.0264 L 388.45742,647.71109 L 387.86738,652.45366 C 387.54286,655.06207 386.7403,661.54482 386.08393,666.85977 L 384.89051,676.52331 L 381.94972,674.97787 z M 347.78858,661.14615 C 347.44463,659.77573 345.61313,657.37677 343.71857,655.81512 L 340.27393,652.97575 L 353.58222,644.50975 L 366.89051,636.04375 L 367.20068,638.82725 C 367.4127,640.72995 369.08322,642.92721 372.47983,645.77102 L 377.44881,649.93128 L 365.16966,655.9095 C 347.91344,664.31085 348.53581,664.12334 347.78858,661.14615 z M 375.21121,642.94623 C 372.17204,639.76736 371.53072,638.28241 371.00036,633.19623 C 369.59138,619.68388 368.42199,597.04533 368.9795,594.07357 C 369.55513,591.00519 369.6674,590.94154 372.23311,592.22881 C 373.69468,592.96211 378.74244,595.33047 383.45035,597.49183 L 392.01018,601.42157 L 390.73985,613.8089 C 390.04117,620.62193 388.73396,628.6215 387.83495,631.58571 C 386.1981,636.9827 380.84506,646.69623 379.50768,646.69623 C 379.11648,646.69623 377.18307,645.00873 375.21121,642.94623 z M 391.77611,636.68183 C 390.44353,635.34925 403.72555,596.89736 406.19238,594.94623 C 408.37505,593.21986 410.93435,593.38293 412.92673,595.37531 C 415.80474,598.25331 414.13394,603.88271 406.43011,617.26429 C 402.51138,624.07114 398.71899,631.34045 398.00256,633.41831 C 396.66135,637.30828 393.86712,638.77284 391.77611,636.68183 z M 389.39051,596.18269 C 384.71551,593.75549 379.17029,591.27693 377.0678,590.67479 C 368.91232,588.3391 369.33789,576.69623 377.57874,576.69623 C 379.16178,576.69623 382.71795,577.84194 385.48134,579.24226 C 389.93701,581.50012 403.20678,589.30574 404.31112,590.31842 C 404.54246,590.53055 403.78831,591.71484 402.63525,592.95017 C 401.48219,594.1855 400.23163,596.43373 399.85623,597.94623 C 399.48084,599.45873 398.88498,600.67363 398.5321,600.64601 C 398.17923,600.61838 394.06551,598.60989 389.39051,596.18269 z M 389.64051,577.3817 C 384.85263,575.03903 383.96719,573.13189 388.14051,574.15087 C 390.85171,574.81286 395.19994,578.25248 394.33495,579.05093 C 394.09051,579.27658 391.97801,578.52542 389.64051,577.3817 z M 376.50545,567.65732 C 372.87935,564.03122 371.70543,558.9262 373.28519,553.65342 C 377.17209,540.68009 393.39051,544.78514 393.39051,558.74228 C 393.39051,569.22868 383.36835,574.52022 376.50545,567.65732 z M 388.88894,540.04904 C 387.72525,539.18509 385.48752,538.72298 383.53166,538.9427 L 380.17281,539.32004 L 380.74019,534.75814 C 381.05226,532.24909 381.84452,525.02123 382.50078,518.69623 C 383.7809,506.35844 385.16975,503.0469 387.91341,505.79056 C 389.06377,506.94092 389.68329,511.42937 390.44596,524.13896 C 391.00127,533.39298 391.32776,541.09231 391.17149,541.24858 C 391.01522,541.40485 389.98807,540.86506 388.88894,540.04904 z"
         id="path3376" />
      <path
         style="fill:url(#linearGradient3771);fill-opacity:1"
         d="M 279.6597,769.38605 C 238.72267,766.17989 202.33772,748.8401 169.57425,716.92317 C 139.50825,687.63401 122.54852,655.95623 116.26063,617.34281 C 114.47802,606.39595 114.79809,575.29444 116.82778,562.23449 C 119.90584,542.4286 122.78928,532.19705 130.2013,514.78011 C 139.50606,492.91554 150.43471,477.13405 169.43422,458.12588 C 185.44239,442.11043 196.76053,433.76916 213.83587,425.40263 C 239.67876,412.74021 261.95932,407.85909 293.94704,407.85225 C 315.77255,407.84758 324.42735,408.82649 341.55263,413.2368 C 389.77925,425.65666 432.33439,461.82371 456.16998,510.64857 C 460.01942,518.5338 464.35737,528.65924 465.80986,533.14955 C 470.02897,546.19277 473.48132,564.66933 474.60516,580.22098 C 478.51254,634.29156 461.98562,678.48419 423.11082,717.91568 C 386.0277,755.52983 335.27073,773.74147 279.6597,769.38605 z M 321.63014,761.85675 C 333.17347,759.64107 338.19809,758.13003 337.19402,757.17625 C 336.04563,756.0854 322.58841,753.44126 310.7857,751.98742 C 296.88071,750.27462 273.3443,752.02795 260.30607,755.74787 C 256.00952,756.9737 255.10872,757.55112 256.38157,758.26343 C 259.11356,759.79234 270.51875,762.45403 278.12891,763.33873 C 287.99309,764.48548 312.23815,763.65951 321.63014,761.85675 z M 256.54675,749.46073 C 260.39264,748.15223 263.71074,746.91016 263.92031,746.7006 C 265.40079,745.22012 257.07886,711.8663 254.52485,709.04416 C 253.67776,708.10813 249.42301,705.27283 245.06985,702.74347 C 235.46698,697.16382 226.62335,690.52065 211.81968,677.76655 C 196.74721,664.78085 195.88774,664.40723 186.51569,666.76645 C 182.45799,667.78789 174.7753,670.06368 169.44305,671.82375 L 159.74808,675.02386 L 159.78302,685.72867 C 159.81217,694.65886 160.17903,697.11017 161.99602,700.51556 C 168.57528,712.84635 190.30052,730.59725 215.36666,744.12275 C 222.80532,748.13659 229.39114,750.51707 238.32846,752.42244 C 241.78951,753.16029 249.22682,751.95124 256.54675,749.46073 z M 363.99443,749.13346 C 388.07205,740.75183 423.40744,712.97664 438.40059,690.64691 C 443.88637,682.47677 450.5012,667.35421 449.17102,666.02404 C 448.7123,665.56531 445.79556,664.9277 442.68937,664.60711 L 437.04174,664.02423 L 424.93994,672.65245 C 418.28395,677.39799 407.34683,685.30453 400.63522,690.22257 C 393.92361,695.1406 384.97858,701.05996 380.75739,703.37669 C 376.53618,705.69341 370.85501,709.90092 368.13258,712.72671 C 361.00873,720.12097 342.93222,744.19974 342.93222,746.29479 C 342.93222,748.19621 350.0576,752.00057 353.64773,752.01599 C 354.77031,752.0208 359.42633,750.72367 363.99443,749.13346 z M 387.83529,692.13739 C 416.08719,673.41873 429.94359,661.72276 431.70683,655.10616 C 434.28911,645.41605 438.03704,608.87258 436.78932,605.55038 C 435.66137,602.54709 427.11531,596.38802 411.40164,587.25372 C 394.16065,577.2316 383.82028,572.43974 379.43449,572.43974 C 377.01919,572.43974 372.99376,574.28985 365.84565,578.68527 C 352.62937,586.81205 333.43468,601.23626 330.67033,605.11843 C 328.98601,607.48383 327.48281,614.20193 323.99466,634.95344 C 321.51864,649.68364 319.19935,665.18022 318.8407,669.39028 L 318.18861,677.04496 L 326.35611,682.92559 C 339.32197,692.26109 365.04754,703.66775 370.48638,702.49287 C 371.88961,702.18975 379.69661,697.52979 387.83529,692.13739 z M 276.21855,696.05171 C 285.53171,692.91339 298.89405,686.25225 304.59833,681.90436 C 308.60896,678.84741 310.03045,676.92309 311.56686,672.47087 C 313.63229,666.48572 320.11635,627.05119 321.15715,614.14509 L 321.78537,606.35499 L 316.79581,601.54966 C 305.50475,590.67559 282.49461,574.39156 275.42855,572.27451 C 269.65288,570.54408 263.78305,571.99416 250.53418,578.42441 C 236.69719,585.14009 212.70003,598.37023 209.99874,600.77246 C 207.48581,603.00716 205.49824,610.30487 202.5769,628.02297 C 199.46246,646.91226 199.38264,653.06107 202.17693,658.8333 C 207.05761,668.91545 235.77638,691.61269 250.57475,697.08345 C 256.99342,699.45635 267.35178,699.0396 276.21855,696.05171 z M 154.1352,683.45349 C 154.1352,679.00941 153.13199,676.09431 148.0769,665.84945 C 137.71842,644.85644 131.70096,627.08981 129.40129,610.7094 C 128.1526,601.81508 128.02309,601.51448 125.30538,601.20177 L 122.49894,600.87886 L 122.49894,608.69539 C 122.49894,624.73147 128.94121,646.36301 139.96691,667.34851 C 145.80228,678.45512 152.24805,688.75752 153.3698,688.7706 C 153.79077,688.77551 154.1352,686.38282 154.1352,683.45349 z M 143.53279,578.30776 C 151.24094,569.18681 158.43389,560.72639 159.51712,559.50681 C 160.67837,558.19942 162.86442,551.70769 164.84381,543.68869 C 170.2352,521.84676 176.55416,505.02515 184.84914,490.43279 C 187.67529,485.4611 189.76823,480.82166 189.5001,480.12293 C 188.29109,476.97228 179.55153,464.26415 178.59382,464.26415 C 175.95132,464.26415 169.49066,468.59394 165.05112,473.34017 C 162.38254,476.19311 156.97871,483.46953 153.04261,489.51004 C 132.31193,521.32417 120.24572,556.81974 121.90306,581.11419 C 122.76744,593.78498 123.14764,594.89128 126.63776,594.89128 C 129.1046,594.89128 131.52953,592.51106 143.53279,578.30776 z M 447.07309,588.52185 C 451.78385,582.66357 461.76045,564.72964 463.30545,559.34258 C 464.48617,555.22568 462.82248,546.26267 458.06472,531.10849 C 451.27197,509.47252 441.3552,491.67636 426.92591,475.22818 C 418.14322,465.21667 409.67839,458.89843 401.41295,456.18509 C 390.07436,452.46289 390.02206,452.48614 380.97337,465.27239 C 376.60874,471.43982 370.74151,480.26136 367.93507,484.87583 C 363.63513,491.94596 362.85642,493.99473 362.98481,497.89978 C 363.12911,502.28803 378.40017,551.14704 382.58282,560.60262 C 384.22846,564.32288 385.95652,565.73567 396.60789,572.06902 C 403.28937,576.04186 413.57803,581.90204 419.47156,585.09166 C 425.36508,588.28127 431.79439,591.79146 433.7589,592.89206 C 439.26051,595.97433 441.73296,595.16277 447.07309,588.52185 z M 225.58559,584.85052 C 234.36586,580.38737 266.83497,562.3916 269.254,560.64762 C 269.42439,560.52477 271.43519,554.28746 273.72245,546.7869 C 276.00968,539.28636 279.93863,527.63872 282.45343,520.90325 C 288.98899,503.39879 288.21229,499.19365 275.45304,483.00256 C 265.47452,470.34012 256.13753,460.17784 251.91387,457.38275 C 246.79399,453.99457 243.07656,454.52308 229.80266,460.52627 C 207.79934,470.47739 196.60982,480.52346 187.56055,498.45171 C 184.8975,503.7277 174.87456,531.77443 171.98161,542.0455 C 170.4034,547.64877 170.42242,548.06999 172.4615,552.67971 C 177.71872,564.56449 204.31627,590.80917 211.10366,590.80917 C 212.62143,590.80917 219.1383,588.12778 225.58559,584.85052 z M 360.56775,485.56288 C 365.55857,479.85864 374.23699,466.76513 378.99786,457.75657 C 381.67988,452.68163 382.53591,449.99758 382.08988,448.06159 C 378.81648,433.85303 350.11785,418.92525 318.13223,414.79359 C 303.8542,412.94926 291.07936,412.79213 285.72935,414.39504 C 274.79422,417.67128 256.30106,439.11046 256.21639,448.6095 C 256.18696,451.91067 260.91058,458.83824 266.89061,464.26415 C 268.43713,465.66736 273.29967,471.23934 277.69623,476.6463 C 286.52981,487.50998 293.04276,493.58566 296.36221,494.0591 C 297.55967,494.22989 311.61777,493.39163 327.60244,492.19629 L 356.66548,490.02298 L 360.56775,485.56288 z"
         id="path2596" />
      <path
         style="fill:#ffffff;fill-opacity:1;stroke:#ffffff;stroke-width:0.90583229;stroke-opacity:1"
         d="M 372.47944,494.28802 C 369.29663,494.03875 366.46774,492.6906 363.92042,490.20909 C 361.58281,487.93188 360.26421,485.46897 359.77533,482.46681 C 359.63674,481.61571 359.66162,479.19759 359.81942,478.1822 C 360.05874,476.64231 360.28293,475.84682 360.8592,474.49267 C 361.58264,472.79272 362.43233,471.56573 363.90953,470.08786 C 365.15414,468.84267 366.03412,468.19415 367.36171,467.54366 C 369.37096,466.55917 371.10326,466.17967 373.59028,466.17913 C 375.28718,466.17877 375.96009,466.25488 377.29156,466.59778 C 381.04113,467.56341 384.34975,470.37536 386.20294,474.17144 C 386.50223,474.78451 386.8395,475.57175 386.95243,475.92087 C 387.28046,476.93497 387.54888,478.3715 387.63626,479.58063 C 387.94005,483.78456 386.6551,487.22049 383.63262,490.28625 C 380.74945,493.21072 376.80314,494.62665 372.47944,494.28802 z M 375.74261,493.70263 C 376.64009,493.53036 377.03074,493.41288 376.95268,493.33872 C 376.86339,493.25391 375.81711,493.04833 374.89946,492.9353 C 373.81836,492.80212 371.98843,492.93845 370.97472,493.22766 C 370.64067,493.32298 370.57063,493.36787 370.66959,493.42325 C 370.882,493.54212 371.76875,493.74906 372.36043,493.81785 C 373.12736,493.907 375.01239,493.84279 375.74261,493.70263 z M 370.68244,492.73885 C 370.98145,492.63712 371.23943,492.54055 371.25572,492.52425 C 371.37083,492.40915 370.72381,489.81592 370.52524,489.5965 C 370.45937,489.52373 370.12857,489.30328 369.79012,489.10663 C 369.0435,488.67281 368.35592,488.15632 367.20495,487.16469 C 366.03308,486.15507 365.96626,486.12602 365.2376,486.30945 C 364.92211,486.38887 364.32479,486.56581 363.91022,486.70265 L 363.15644,486.95146 L 363.15915,487.78375 C 363.16142,488.47806 363.18994,488.66865 363.33121,488.93341 C 363.84274,489.89212 365.53186,491.27224 367.48073,492.32383 C 368.05907,492.63589 368.57111,492.82097 369.26599,492.96912 C 369.53507,493.02649 370.11332,492.93248 370.68244,492.73885 z M 379.03638,492.71341 C 380.90839,492.06174 383.65568,489.90225 384.82139,488.16614 C 385.2479,487.53091 385.7622,486.35515 385.65878,486.25173 C 385.62312,486.21606 385.39634,486.16649 385.15484,486.14157 L 384.71574,486.09625 L 383.77484,486.76708 C 383.25734,487.13604 382.40699,487.75077 381.88517,488.13314 C 381.36335,488.51552 380.66788,488.97573 380.33969,489.15586 C 380.01149,489.33598 379.56979,489.66311 379.35813,489.88282 C 378.80425,490.45771 377.39882,492.32981 377.39882,492.4927 C 377.39882,492.64053 377.95281,492.93632 378.23194,492.93752 C 378.31922,492.93789 378.68122,492.83704 379.03638,492.71341 z M 380.88999,488.28202 C 383.08654,486.82666 384.16387,485.91731 384.30095,485.40288 C 384.50172,484.64948 384.79312,481.80826 384.69611,481.54996 C 384.60842,481.31646 383.94397,480.8376 382.72225,480.12742 C 381.38177,479.3482 380.57782,478.97564 380.23684,478.97564 C 380.04905,478.97564 379.73608,479.11949 379.18031,479.46122 C 378.15276,480.09308 376.66039,481.21454 376.44547,481.51638 C 376.31451,481.70029 376.19764,482.22261 375.92644,483.83602 C 375.73394,484.98128 375.55361,486.18612 375.52573,486.51345 L 375.47503,487.1086 L 376.11005,487.56581 C 377.11813,488.29163 379.11826,489.17849 379.54113,489.08714 C 379.65023,489.06358 380.25721,488.70127 380.88999,488.28202 z M 372.2119,488.58635 C 372.93598,488.34235 373.9749,487.82446 374.4184,487.48641 C 374.73022,487.24874 374.84074,487.09912 374.96019,486.75297 C 375.12078,486.28762 375.62491,483.22163 375.70583,482.2182 L 375.75467,481.61252 L 375.36674,481.23891 C 374.48887,480.39346 372.69986,479.1274 372.15047,478.9628 C 371.70142,478.82826 371.24505,478.941 370.21496,479.44094 C 369.13915,479.96308 367.2734,480.99172 367.06337,481.17848 C 366.86799,481.35223 366.71347,481.91962 366.48633,483.29719 C 366.24419,484.76581 366.23799,485.24387 366.45523,485.69265 C 366.8347,486.47653 369.06756,488.24122 370.21812,488.66656 C 370.71717,488.85105 371.52251,488.81865 372.2119,488.58635 z M 362.72004,487.60685 C 362.72004,487.26133 362.64204,487.03468 362.24902,486.23815 C 361.44365,484.60597 360.9758,483.22463 360.79701,481.95108 C 360.69992,481.25955 360.68986,481.23618 360.47855,481.21186 L 360.26036,481.18675 L 360.26036,481.79449 C 360.26036,483.04127 360.76124,484.7231 361.61847,486.35471 C 362.07216,487.21824 362.57332,488.01924 362.66053,488.02025 C 362.69327,488.02063 362.72004,487.8346 362.72004,487.60685 z M 361.89572,479.43188 C 362.49502,478.72274 363.05426,478.06495 363.13848,477.97012 C 363.22877,477.86847 363.39873,477.36375 363.55263,476.74028 C 363.9718,475.04209 364.46309,473.73423 365.10802,472.59969 C 365.32775,472.21314 365.49048,471.85243 365.46962,471.79811 C 365.37563,471.55315 364.69613,470.5651 364.62168,470.5651 C 364.41622,470.5651 363.91391,470.90173 363.56874,471.27075 C 363.36126,471.49256 362.94112,472.0583 362.63509,472.52795 C 361.0233,475.00146 360.08517,477.7612 360.21402,479.65007 C 360.28123,480.63522 360.31079,480.72123 360.58214,480.72123 C 360.77394,480.72123 360.96248,480.53617 361.89572,479.43188 z M 385.49566,480.22601 C 385.86192,479.77054 386.63759,478.37619 386.75772,477.95735 C 386.84951,477.63727 386.72017,476.9404 386.35025,475.76219 C 385.82213,474.08001 385.05111,472.69637 383.92925,471.41754 C 383.2464,470.63916 382.58827,470.14792 381.94564,469.93696 C 381.06407,469.64756 381.06,469.64938 380.35648,470.64349 C 380.01714,471.123 379.56096,471.80887 379.34276,472.16763 C 379.00845,472.71734 378.9479,472.87662 378.95788,473.18024 C 378.96911,473.52142 380.15642,477.32016 380.48161,478.05532 C 380.60956,478.34457 380.74391,478.45441 381.57205,478.94682 C 382.09153,479.25571 382.89146,479.71132 383.34968,479.95931 C 383.80789,480.2073 384.30777,480.48022 384.4605,480.5658 C 384.88825,480.80543 385.08048,480.74233 385.49566,480.22601 z M 368.27524,479.94057 C 368.95789,479.59357 371.48233,478.19441 371.67041,478.05882 C 371.68366,478.04927 371.84,477.56432 372.01783,476.98116 C 372.19566,476.398 372.50113,475.49241 372.69665,474.96873 C 373.20479,473.60778 373.1444,473.28084 372.15238,472.022 C 371.37657,471.0375 370.65062,470.2474 370.32223,470.03008 C 369.92417,469.76665 369.63514,469.80774 368.60311,470.27448 C 366.89237,471.04817 366.0224,471.82924 365.31883,473.22315 C 365.11178,473.63335 364.33251,475.81395 364.10758,476.61253 C 363.98488,477.04817 363.98636,477.08092 364.14489,477.43933 C 364.55364,478.36336 366.62157,480.40385 367.14928,480.40385 C 367.26729,480.40385 367.77397,480.19537 368.27524,479.94057 z M 378.76996,472.22106 C 379.15799,471.77756 379.83274,470.75955 380.20289,470.05915 C 380.41141,469.66458 380.47797,469.45589 380.44329,469.30537 C 380.18878,468.20067 377.95749,467.04004 375.47065,466.71882 C 374.36054,466.57542 373.36731,466.56321 372.95136,466.68783 C 372.10116,466.94255 370.66333,468.60943 370.65676,469.34797 C 370.65446,469.60463 371.02172,470.14324 371.48666,470.5651 C 371.6069,470.6742 371.98496,471.10741 372.32678,471.5278 C 373.01359,472.37244 373.51996,472.84482 373.77805,472.88163 C 373.87115,472.89491 374.96415,472.82973 376.20694,472.7368 L 378.46657,472.56782 L 378.76996,472.22106 z"
         id="path3479" />
      <g
         transform="translate(66.31917,19.683837)"
         id="g3494">
        <g
           id="g3489"
           transform="translate(266.18974,19.864906)">
          <rect
             y="394.8338"
             x="-41.054142"
             height="31.78385"
             width="47.675774"
             id="rect3483"
             style="opacity:1;fill:#ffffff;fill-opacity:1;stroke:none;stroke-width:1.25;stroke-miterlimit:4;stroke-dasharray:5, 5;stroke-dashoffset:0;stroke-opacity:1" />
          <rect
             y="699.40198"
             x="-30.128445"
             height="3.9729812"
             width="25.824377"
             id="rect3485"
             style="opacity:1;fill:#ffffff;fill-opacity:1;stroke:none;stroke-width:1.25;stroke-miterlimit:4;stroke-dasharray:5, 5;stroke-dashoffset:0;stroke-opacity:1" />
          <rect
             y="425.27982"
             x="-19.533827"
             height="274.79785"
             width="4.6351447"
             id="rect3487"
             style="opacity:1;fill:#ffffff;fill-opacity:1;stroke:none;stroke-width:1.25;stroke-miterlimit:4;stroke-dasharray:5, 5;stroke-dashoffset:0;stroke-opacity:1" />
        </g>
      </g>
      <path
         sodipodi:open="true"
         sodipodi:end="5.7595865"
         sodipodi:start="0.52359878"
         transform="matrix(1.3880637,0,0,1.3880637,92.021219,-140.68958)"
         d="M 258.8675,590.00649 A 128.7908,128.7908 0 0 1 113.99788,650.01345 128.7908,128.7908 0 0 1 18.540588,525.61109 128.7908,128.7908 0 0 1 113.99788,401.20872 128.7908,128.7908 0 0 1 258.86749,461.21568"
         sodipodi:ry="128.7908"
         sodipodi:rx="128.7908"
         sodipodi:cy="525.61108"
         sodipodi:cx="147.33139"
         id="path3502"
         style="fill:none;fill-opacity:1;stroke:#ffffff;stroke-width:6.54722977;stroke-miterlimit:4;stroke-dasharray:none;stroke-dashoffset:0;stroke-opacity:1"
         sodipodi:type="arc" />
      <path
         sodipodi:open="true"
         sodipodi:end="6.8067841"
         sodipodi:start="5.7944931"
         transform="matrix(2.841591,0,0,2.841591,-1131.6063,-922.55492)"
         d="m 550.52389,506.41058 a 54.297409,54.297409 0 0 1 -0.91883,52.6398"
         sodipodi:ry="54.297409"
         sodipodi:rx="54.297409"
         sodipodi:cy="531.90167"
         sodipodi:cx="502.58212"
         id="path3512"
         style="fill:none;fill-opacity:1;stroke:none;stroke-width:0.32077584;stroke-miterlimit:4;stroke-dasharray:none;stroke-dashoffset:0;stroke-opacity:1"
         sodipodi:type="arc" />
      <g
         style="font-style:normal;font-variant:normal;font-weight:bold;font-stretch:normal;font-size:56px;line-height:125%;font-family:'Helvetica Neue';-inkscape-font-specification:'Helvetica Neue Bold';text-align:start;writing-mode:lr-tb;text-anchor:start;fill:#ffffff;fill-opacity:1;stroke:none;stroke-width:1px;stroke-linecap:butt;stroke-linejoin:miter;stroke-opacity:1"
         id="text3609">
        <path
           d="m 474.06036,506.51049 3.67103,9.86654 -13.96691,5.19665 19.25892,9.02653 4.26221,11.45543 -24.97431,-11.68472 -12.58174,27.81713 -4.59594,-12.35239 9.40501,-20.82932 -15.06889,5.60667 -3.67103,-9.86654 38.26165,-14.23598 z"
           style="font-style:normal;font-variant:normal;font-weight:bold;font-stretch:normal;font-size:56px;line-height:125%;font-family:'Helvetica Neue';-inkscape-font-specification:'Helvetica Neue Bold';text-align:start;writing-mode:lr-tb;text-anchor:start;fill:#ffffff;fill-opacity:1"
           id="path4160" />
        <path
           d="m 453.95054,591.6604 q -1.75897,-2.75113 -2.80485,-5.81387 -1.04587,-3.06275 -1.35387,-6.46681 -0.91907,-10.15773 4.20813,-16.60693 5.15444,-6.45166 14.87645,-7.33131 9.74923,-0.88212 15.95075,4.54206 6.22875,5.42171 7.14782,15.57943 0.308,3.40406 -0.17115,6.60479 -0.47914,3.20073 -1.71575,6.2229 l -8.41484,0.76138 q 1.72432,-3.09375 2.39397,-6.00971 0.66965,-2.91596 0.38629,-6.04769 -0.50759,-5.6099 -4.39303,-8.49809 -3.88545,-2.88818 -10.20339,-2.31653 -6.29071,0.56918 -9.59464,4.10787 -3.30394,3.53868 -2.79635,9.14858 0.28336,3.13174 1.46552,5.88014 1.18216,2.7484 3.43378,5.48241 l -8.41484,0.76138 z"
           style="font-style:normal;font-variant:normal;font-weight:bold;font-stretch:normal;font-size:56px;line-height:125%;font-family:'Helvetica Neue';-inkscape-font-specification:'Helvetica Neue Bold';text-align:start;writing-mode:lr-tb;text-anchor:start;fill:#ffffff;fill-opacity:1"
           id="path4162" />
        <path
           d="m 472.87384,621.36609 q -0.44825,2.44757 0.39609,3.90874 0.84434,1.46116 2.94226,1.84537 2.07103,0.37929 3.3784,-0.68781 1.33426,-1.06217 1.78251,-3.50974 l 1.0492,-5.72894 -8.49926,-1.55656 -1.0492,5.72894 z m -17.62739,-2.86691 q -0.5714,3.11999 0.46083,4.92134 1.0273,1.82826 3.69004,2.31591 2.60896,0.47781 4.18568,-0.84575 1.60362,-1.31862 2.17994,-4.4655 l 1.11324,-6.07859 -10.5165,-1.926 -1.11323,6.07859 z m 12.67993,12.27408 q -1.57908,3.15783 -4.52298,4.50898 -2.94391,1.35115 -6.73631,0.65661 -5.80962,-1.06398 -7.94147,-5.51299 -2.13185,-4.44901 -0.66396,-12.46414 l 3.1476,-17.18681 40.15634,7.35425 -2.84712,15.54612 q -1.53193,8.36479 -4.74488,11.64036 -3.21788,3.30247 -8.78543,2.28283 -2.93171,-0.53692 -4.75152,-2.28792 -1.79291,-1.74608 -2.31027,-4.53729 z"
           style="font-style:normal;font-variant:normal;font-weight:bold;font-stretch:normal;font-size:56px;line-height:125%;font-family:'Helvetica Neue';-inkscape-font-specification:'Helvetica Neue Bold';text-align:start;writing-mode:lr-tb;text-anchor:start;fill:#ffffff;fill-opacity:1"
           id="path4164" />
        <path
           d="m 479.20628,657.64727 -3.97537,9.74789 -34.13028,-13.91897 q -7.06405,-2.88086 -8.9886,-8.15432 -1.93488,-5.24813 1.2351,-13.02113 l 0.8054,-1.97489 7.36788,3.00476 -0.61954,1.51915 q -1.23907,3.0383 -0.17255,5.27459 1.05619,2.26161 4.34769,3.60395 l 34.13027,13.91897 z"
           style="font-style:normal;font-variant:normal;font-weight:bold;font-stretch:normal;font-size:56px;line-height:125%;font-family:'Helvetica Neue';-inkscape-font-specification:'Helvetica Neue Bold';text-align:start;writing-mode:lr-tb;text-anchor:start;fill:#ffffff;fill-opacity:1"
           id="path4166" />
      </g>
    </g>
  </g>
</svg>
