<?xml version="1.0" encoding="UTF-8" standalone="no"?>
<!-- Created with Inkscape (http://www.inkscape.org/) -->

<svg
   xmlns:dc="http://purl.org/dc/elements/1.1/"
   xmlns:cc="http://creativecommons.org/ns#"
   xmlns:rdf="http://www.w3.org/1999/02/22-rdf-syntax-ns#"
   xmlns:svg="http://www.w3.org/2000/svg"
   xmlns="http://www.w3.org/2000/svg"
   xmlns:sodipodi="http://sodipodi.sourceforge.net/DTD/sodipodi-0.dtd"
   xmlns:inkscape="http://www.inkscape.org/namespaces/inkscape"
   width="165.84375"
   height="30.625"
   id="svg3241"
   version="1.1"
   inkscape:version="0.48.2 r9819"
   sodipodi:docname="New document 5">
  <defs
     id="defs3243">
    <clipPath
       clipPathUnits="userSpaceOnUse"
       id="clipPath4110">
      <rect
         style="fill:none;stroke:none"
         id="rect4112"
         width="25"
         height="25"
         x="175"
         y="822.36218"
         ry="0"
         rx="0" />
    </clipPath>
    <clipPath
       clipPathUnits="userSpaceOnUse"
       id="clipPath4106">
      <rect
         style="fill:none;stroke:none"
         id="rect4108"
         width="25"
         height="25"
         x="175"
         y="822.36218"
         ry="0"
         rx="0" />
    </clipPath>
    <clipPath
       clipPathUnits="userSpaceOnUse"
       id="clipPath4102">
      <rect
         style="fill:none;stroke:none"
         id="rect4104"
         width="25"
         height="25"
         x="175"
         y="822.36218"
         ry="0"
         rx="0" />
    </clipPath>
    <clipPath
       clipPathUnits="userSpaceOnUse"
       id="clipPath4098">
      <rect
         style="fill:none;stroke:none"
         id="rect4100"
         width="25"
         height="25"
         x="175"
         y="822.36218"
         ry="0"
         rx="0" />
    </clipPath>
    <clipPath
       clipPathUnits="userSpaceOnUse"
       id="clipPath4094">
      <rect
         style="fill:none;stroke:none"
         id="rect4096"
         width="25"
         height="25"
         x="175"
         y="822.36218"
         ry="0"
         rx="0" />
    </clipPath>
  </defs>
  <sodipodi:namedview
     id="base"
     pagecolor="#ffffff"
     bordercolor="#666666"
     borderopacity="1.0"
     inkscape:pageopacity="0.0"
     inkscape:pageshadow="2"
     inkscape:zoom="1.979899"
     inkscape:cx="138.86622"
     inkscape:cy="53.49889"
     inkscape:document-units="px"
     inkscape:current-layer="layer1"
     showgrid="false"
     fit-margin-top="0"
     fit-margin-left="0"
     fit-margin-right="0"
     fit-margin-bottom="0"
     inkscape:window-width="1020"
     inkscape:window-height="785"
     inkscape:window-x="0"
     inkscape:window-y="24"
     inkscape:window-maximized="0" />
  <metadata
     id="metadata3246">
    <rdf:RDF>
      <cc:Work
         rdf:about="">
        <dc:format>image/svg+xml</dc:format>
        <dc:type
           rdf:resource="http://purl.org/dc/dcmitype/StillImage" />
        <dc:title></dc:title>
      </cc:Work>
    </rdf:RDF>
  </metadata>
  <g
     inkscape:label="Layer 1"
     inkscape:groupmode="layer"
     id="layer1"
     transform="translate(-80.35714,-384.76398)">
    <g
       id="g4114"
       transform="translate(-94.64286,-432.28571)"
       inkscape:export-filename="/home/litrik/Desktop/norio.png"
       inkscape:export-xdpi="151.95"
       inkscape:export-ydpi="151.95">
      <path
         clip-path="url(#clipPath4110)"
         inkscape:export-ydpi="151.89"
         inkscape:export-xdpi="151.89"
         inkscape:export-filename="/home/litrik/Desktop/norio.png"
         inkscape:connector-curvature="0"
         id="path4051-9-9-7-0-8-0"
         d="m 186.47795,825.53053 -18.76922,18.76925 0,-37.53847 z"
         style="fill:#fecd0f;fill-opacity:1;stroke:#ffffff;stroke-width:0;stroke-linecap:butt;stroke-linejoin:miter;stroke-miterlimit:4;stroke-opacity:1;stroke-dasharray:none" />
      <path
         clip-path="url(#clipPath4106)"
         inkscape:export-ydpi="151.89"
         inkscape:export-xdpi="151.89"
         inkscape:export-filename="/home/litrik/Desktop/norio.png"
         inkscape:connector-curvature="0"
         id="path4051-1-3-3-2-9-8"
         d="m 196.9395,833.87241 18.76922,-18.76922 -37.53844,0 z"
         style="fill:#189a4a;fill-opacity:1;stroke:#ffffff;stroke-width:0;stroke-linecap:butt;stroke-linejoin:miter;stroke-miterlimit:4;stroke-opacity:1;stroke-dasharray:none" />
      <path
         clip-path="url(#clipPath4102)"
         inkscape:export-ydpi="151.89"
         inkscape:export-xdpi="151.89"
         inkscape:export-filename="/home/litrik/Desktop/norio.png"
         inkscape:connector-curvature="0"
         id="path4051-1-5-7-3-7-3-8"
         d="m 188.59762,844.33396 18.76923,-18.76923 0,37.53847 z"
         style="fill:#ee383b;fill-opacity:1;stroke:#ffffff;stroke-width:0;stroke-linecap:butt;stroke-linejoin:miter;stroke-miterlimit:4;stroke-opacity:1;stroke-dasharray:none" />
      <path
         clip-path="url(#clipPath4098)"
         inkscape:export-ydpi="151.89"
         inkscape:export-xdpi="151.89"
         inkscape:export-filename="/home/litrik/Desktop/norio.png"
         inkscape:connector-curvature="0"
         id="path4051-1-5-5-4-0-2-5-5"
         d="m 178.13607,835.99208 -18.76922,18.76923 37.53845,0 z"
         style="fill:#4577bb;fill-opacity:1;stroke:#ffffff;stroke-width:0;stroke-linecap:butt;stroke-linejoin:miter;stroke-miterlimit:4;stroke-opacity:1;stroke-dasharray:none" />
      <rect
         clip-path="url(#clipPath4094)"
         y="822.36218"
         x="175"
         height="25"
         width="25"
         id="rect4084"
         style="fill:none;stroke:none" />
    </g>
    <g
       style="font-size:64px;font-style:normal;font-variant:normal;font-weight:300;font-stretch:normal;text-align:start;line-height:125%;letter-spacing:0px;word-spacing:0px;writing-mode:lr-tb;text-anchor:start;fill:#000000;fill-opacity:1;stroke:none;font-family:Gruppo;-inkscape-font-specification:Gruppo Light"
       id="text2985-6-6-7-3">
      <path
         d="m 141.35714,412.82648 c -3e-5,0.27083 -0.0209,0.54167 -0.0625,0.8125 -0.0417,0.27083 -0.11461,0.51041 -0.21875,0.71875 -0.0834,0.20833 -0.20836,0.38541 -0.375,0.53125 -0.1667,0.125 -0.37503,0.1875 -0.625,0.1875 -0.31253,0 -0.55211,-0.0625 -0.71875,-0.1875 -0.14586,-0.14584 -0.26045,-0.32292 -0.34375,-0.53125 -0.0834,-0.20834 -0.13545,-0.44792 -0.15625,-0.71875 -3e-5,-0.27083 -3e-5,-0.54167 0,-0.8125 l 0,-10.8125 c -3e-5,-1.62499 -0.13545,-3.04165 -0.40625,-4.25 -0.25003,-1.20832 -0.73961,-2.20832 -1.46875,-3 -0.70836,-0.81248 -1.69794,-1.41665 -2.96875,-1.8125 -1.25002,-0.39581 -2.87502,-0.59373 -4.875,-0.59375 -1.20835,2e-5 -2.51043,0.10419 -3.90625,0.3125 -1.37501,0.18752 -2.68751,0.53127 -3.9375,1.03125 -1.25001,0.47918 -2.35418,1.12502 -3.3125,1.9375 -0.95834,0.81252 -1.62501,1.83335 -2,3.0625 l 0,14.125 c -1e-5,0.27083 -0.0104,0.54167 -0.0312,0.8125 -0.0208,0.27083 -0.0729,0.51041 -0.15625,0.71875 -0.0833,0.20833 -0.20834,0.38541 -0.375,0.53125 -0.14584,0.125 -0.34376,0.1875 -0.59375,0.1875 -0.29167,0 -0.53125,-0.0625 -0.71875,-0.1875 -0.16667,-0.14584 -0.30209,-0.32292 -0.40625,-0.53125 -0.0833,-0.20834 -0.14584,-0.44792 -0.1875,-0.71875 -0.0208,-0.27083 -0.0312,-0.54167 -0.0312,-0.8125 l 0,-19.4375 c 0,-0.24998 0.0104,-0.49998 0.0312,-0.75 0.0417,-0.27081 0.10416,-0.5104 0.1875,-0.71875 0.10416,-0.20831 0.23958,-0.37498 0.40625,-0.5 0.1875,-0.14581 0.42708,-0.21873 0.71875,-0.21875 0.24999,2e-5 0.44791,0.0625 0.59375,0.1875 0.16666,0.12502 0.29166,0.29169 0.375,0.5 0.0833,0.20835 0.13541,0.44794 0.15625,0.71875 0.0208,0.25002 0.0312,0.51044 0.0312,0.78125 l 0,3.125 c 0.58333,-1.33332 1.39583,-2.39582 2.4375,-3.1875 1.06249,-0.81248 2.20832,-1.41665 3.4375,-1.8125 1.22915,-0.41665 2.47915,-0.68748 3.75,-0.8125 1.29165,-0.12498 2.46873,-0.18748 3.53125,-0.1875 2.24998,2e-5 4.14581,0.19794 5.6875,0.59375 1.56247,0.37502 2.82289,1.01044 3.78125,1.90625 0.97914,0.89585 1.67705,2.08335 2.09375,3.5625 0.43747,1.45835 0.65622,3.27085 0.65625,5.4375 l 0,10.8125"
         style=""
         id="path3334" />
      <path
         d="m 161.66964,415.38898 c -2.87501,0 -5.3021,-0.28125 -7.28125,-0.84375 -1.97918,-0.58334 -3.58334,-1.40625 -4.8125,-2.46875 -1.20834,-1.0625 -2.08334,-2.35416 -2.625,-3.875 -0.54167,-1.52083 -0.8125,-3.23958 -0.8125,-5.15625 0,-2.20832 0.30208,-4.09374 0.90625,-5.65625 0.625,-1.58332 1.57291,-2.8854 2.84375,-3.90625 1.29166,-1.02081 2.90624,-1.77081 4.84375,-2.25 1.95832,-0.47915 4.27082,-0.71873 6.9375,-0.71875 2.66665,2e-5 4.96873,0.2396 6.90625,0.71875 1.95831,0.47919 3.57289,1.22919 4.84375,2.25 1.29164,1.02085 2.23955,2.32293 2.84375,3.90625 0.62497,1.56251 0.93747,3.44793 0.9375,5.65625 -3e-5,1.91667 -0.27087,3.63542 -0.8125,5.15625 -0.5417,1.52084 -1.42711,2.8125 -2.65625,3.875 -1.20836,1.0625 -2.80211,1.88541 -4.78125,2.46875 -1.97919,0.5625 -4.40627,0.84375 -7.28125,0.84375 m 0,-1.84375 c 1.89581,0 3.53123,-0.13542 4.90625,-0.40625 1.37498,-0.29167 2.54164,-0.6875 3.5,-1.1875 0.97914,-0.5 1.76039,-1.08333 2.34375,-1.75 0.60414,-0.66666 1.07289,-1.38541 1.40625,-2.15625 0.35414,-0.79166 0.5833,-1.60416 0.6875,-2.4375 0.12497,-0.85416 0.18747,-1.70833 0.1875,-2.5625 -3e-5,-1.93749 -0.25003,-3.58332 -0.75,-4.9375 -0.50003,-1.35415 -1.28128,-2.45832 -2.34375,-3.3125 -1.06253,-0.85415 -2.41669,-1.46873 -4.0625,-1.84375 -1.64586,-0.39581 -3.60419,-0.59373 -5.875,-0.59375 -2.27085,2e-5 -4.22918,0.19794 -5.875,0.59375 -1.64584,0.37502 -3.00001,0.9896 -4.0625,1.84375 -1.06251,0.85418 -1.84376,1.95835 -2.34375,3.3125 -0.50001,1.35418 -0.75,3.00001 -0.75,4.9375 0,0.85417 0.0521,1.70834 0.15625,2.5625 0.12499,0.83334 0.35416,1.64584 0.6875,2.4375 0.35416,0.77084 0.82291,1.48959 1.40625,2.15625 0.60416,0.66667 1.38541,1.25 2.34375,1.75 0.97916,0.5 2.15624,0.89583 3.53125,1.1875 1.37499,0.27083 3.0104,0.40625 4.90625,0.40625"
         style=""
         id="path3336" />
      <path
         d="m 202.23214,391.26398 c 0.29164,0.0833 0.47914,0.25002 0.5625,0.5 0.10414,0.25002 0.11456,0.50002 0.0312,0.75 -0.0625,0.25002 -0.21877,0.45835 -0.46875,0.625 -0.22919,0.16669 -0.53127,0.19794 -0.90625,0.0937 -0.81252,-0.22915 -1.59377,-0.40623 -2.34375,-0.53125 -0.75002,-0.12498 -1.5521,-0.18748 -2.40625,-0.1875 -1.41668,2e-5 -2.77085,0.12502 -4.0625,0.375 -1.27085,0.22919 -2.43751,0.59377 -3.5,1.09375 -1.04168,0.47918 -1.94793,1.10418 -2.71875,1.875 -0.75001,0.75002 -1.31251,1.63543 -1.6875,2.65625 l 0,14.375 c -10e-6,0.54167 -0.0729,1.04166 -0.21875,1.5 -0.14584,0.45833 -0.47917,0.6875 -1,0.6875 -0.29167,0 -0.53125,-0.0625 -0.71875,-0.1875 -0.16667,-0.125 -0.29167,-0.29167 -0.375,-0.5 -0.0833,-0.20834 -0.13542,-0.4375 -0.15625,-0.6875 -0.0208,-0.27083 -0.0312,-0.54167 -0.0312,-0.8125 l 0,-19.5625 c 0,-0.27081 0.0208,-0.53123 0.0625,-0.78125 0.0417,-0.27081 0.11458,-0.5104 0.21875,-0.71875 0.10416,-0.20831 0.25,-0.37498 0.4375,-0.5 0.20833,-0.12498 0.45833,-0.18748 0.75,-0.1875 0.37499,2e-5 0.63541,0.19794 0.78125,0.59375 0.16666,0.37502 0.26041,0.84377 0.28125,1.40625 0.0417,0.56252 0.0417,1.15627 0,1.78125 -0.0208,0.60418 -0.0313,1.13543 -0.0312,1.59375 0.37499,-1.27082 1.03124,-2.30207 1.96875,-3.09375 0.95832,-0.79165 2.02082,-1.39581 3.1875,-1.8125 1.16665,-0.43748 2.35415,-0.72915 3.5625,-0.875 1.22915,-0.14581 2.31248,-0.21873 3.25,-0.21875 0.79165,2e-5 1.46873,0.0313 2.03125,0.0937 0.58331,0.0417 1.08331,0.10419 1.5,0.1875 0.41664,0.0625 0.78123,0.13544 1.09375,0.21875 0.31248,0.0833 0.61456,0.16669 0.90625,0.25"
         style=""
         id="path3338" />
      <path
         d="m 209.57589,413.10773 c -10e-6,0.27083 -0.0104,0.53125 -0.0312,0.78125 -0.0208,0.22916 -0.0729,0.4375 -0.15625,0.625 -0.0625,0.16666 -0.17709,0.30208 -0.34375,0.40625 -0.16667,0.10416 -0.40626,0.15625 -0.71875,0.15625 -0.29167,0 -0.52084,-0.0417 -0.6875,-0.125 -0.16667,-0.10417 -0.29167,-0.23959 -0.375,-0.40625 -0.0833,-0.16667 -0.13542,-0.36459 -0.15625,-0.59375 -0.0208,-0.25 -0.0312,-0.53125 -0.0312,-0.84375 l 0,-20.0625 c 0,-0.31248 0.0104,-0.59373 0.0312,-0.84375 0.0208,-0.27081 0.0729,-0.49998 0.15625,-0.6875 0.0833,-0.20831 0.20833,-0.36456 0.375,-0.46875 0.16666,-0.12498 0.39583,-0.18748 0.6875,-0.1875 0.52083,2e-5 0.85416,0.21877 1,0.65625 0.16666,0.43752 0.24999,0.9271 0.25,1.46875 l 0,20.125 m -2.90625,-26.65625 c 0,-0.47914 0.15625,-0.87497 0.46875,-1.1875 0.3125,-0.33331 0.70833,-0.49997 1.1875,-0.5 0.47916,3e-5 0.88541,0.16669 1.21875,0.5 0.33333,0.31253 0.49999,0.70836 0.5,1.1875 -10e-6,0.47919 -0.16667,0.86461 -0.5,1.15625 -0.33334,0.29169 -0.73959,0.43752 -1.21875,0.4375 -0.47917,2e-5 -0.875,-0.14581 -1.1875,-0.4375 -0.3125,-0.29164 -0.46875,-0.67706 -0.46875,-1.15625"
         style=""
         id="path3340" />
      <path
         d="m 230.66964,415.38898 c -2.87501,0 -5.3021,-0.28125 -7.28125,-0.84375 -1.97918,-0.58334 -3.58334,-1.40625 -4.8125,-2.46875 -1.20834,-1.0625 -2.08334,-2.35416 -2.625,-3.875 -0.54167,-1.52083 -0.8125,-3.23958 -0.8125,-5.15625 0,-2.20832 0.30208,-4.09374 0.90625,-5.65625 0.625,-1.58332 1.57291,-2.8854 2.84375,-3.90625 1.29166,-1.02081 2.90624,-1.77081 4.84375,-2.25 1.95832,-0.47915 4.27082,-0.71873 6.9375,-0.71875 2.66665,2e-5 4.96873,0.2396 6.90625,0.71875 1.95831,0.47919 3.57289,1.22919 4.84375,2.25 1.29164,1.02085 2.23955,2.32293 2.84375,3.90625 0.62497,1.56251 0.93747,3.44793 0.9375,5.65625 -3e-5,1.91667 -0.27087,3.63542 -0.8125,5.15625 -0.5417,1.52084 -1.42711,2.8125 -2.65625,3.875 -1.20836,1.0625 -2.80211,1.88541 -4.78125,2.46875 -1.97919,0.5625 -4.40627,0.84375 -7.28125,0.84375 m 0,-1.84375 c 1.89581,0 3.53123,-0.13542 4.90625,-0.40625 1.37498,-0.29167 2.54164,-0.6875 3.5,-1.1875 0.97914,-0.5 1.76039,-1.08333 2.34375,-1.75 0.60414,-0.66666 1.07289,-1.38541 1.40625,-2.15625 0.35414,-0.79166 0.5833,-1.60416 0.6875,-2.4375 0.12497,-0.85416 0.18747,-1.70833 0.1875,-2.5625 -3e-5,-1.93749 -0.25003,-3.58332 -0.75,-4.9375 -0.50003,-1.35415 -1.28128,-2.45832 -2.34375,-3.3125 -1.06253,-0.85415 -2.41669,-1.46873 -4.0625,-1.84375 -1.64586,-0.39581 -3.60419,-0.59373 -5.875,-0.59375 -2.27085,2e-5 -4.22918,0.19794 -5.875,0.59375 -1.64584,0.37502 -3.00001,0.9896 -4.0625,1.84375 -1.06251,0.85418 -1.84376,1.95835 -2.34375,3.3125 -0.50001,1.35418 -0.75,3.00001 -0.75,4.9375 0,0.85417 0.0521,1.70834 0.15625,2.5625 0.12499,0.83334 0.35416,1.64584 0.6875,2.4375 0.35416,0.77084 0.82291,1.48959 1.40625,2.15625 0.60416,0.66667 1.38541,1.25 2.34375,1.75 0.97916,0.5 2.15624,0.89583 3.53125,1.1875 1.37499,0.27083 3.0104,0.40625 4.90625,0.40625"
         style=""
         id="path3342" />
    </g>
  </g>
</svg>
